<svg xmlns="http://www.w3.org/2000/svg" version="1.1" xmlns:xlink="http://www.w3.org/1999/xlink" xmlns:svgjs="http://svgjs.dev/svgjs" width="2000" height="459" viewBox="0 0 2000 459"><g transform="matrix(1,0,0,1,-1.2121212121212466,-1.013149806206826)"><svg viewBox="0 0 396 91" data-background-color="#ffffff" preserveAspectRatio="xMidYMid meet" height="459" width="2000" xmlns="http://www.w3.org/2000/svg" xmlns:xlink="http://www.w3.org/1999/xlink"><g id="tight-bounds" transform="matrix(1,0,0,1,0.2400000000000091,0.20086412279917454)"><svg viewBox="0 0 395.52 90.59827175440164" height="90.59827175440164" width="395.52"><g><svg viewBox="0 0 541.2809962055602 123.98645527337325" height="90.59827175440164" width="395.52"><g transform="matrix(1,0,0,1,145.76099620556022,17.135609954568963)"><svg viewBox="0 0 395.52 89.71523536423533" height="89.71523536423533" width="395.52"><g id="textblocktransform"><svg viewBox="0 0 395.52 89.71523536423533" height="89.71523536423533" width="395.52" id="textblock"><g><svg viewBox="0 0 395.52 45.172105883277034" height="45.172105883277034" width="395.52"><g transform="matrix(1,0,0,1,0,0)"><svg width="395.52" viewBox="3.25 -35.01 309.54999999999995 35.5" height="45.172105883277034" data-palette-color="#6abc74"><g class="wordmark-text-0" data-fill-palette-color="primary" id="text-0"><path d="M31.3-17.5L31.3-17.5Q31.3-15.09 30.68-12.85 30.05-10.62 28.91-8.68 27.76-6.74 26.17-5.14 24.58-3.54 22.63-2.39 20.68-1.25 18.44-0.62 16.21 0 13.79 0L13.79 0 3.25 0 3.25-35.01 13.79-35.01Q16.21-35.01 18.44-34.39 20.68-33.76 22.63-32.62 24.58-31.47 26.17-29.87 27.76-28.27 28.91-26.33 30.05-24.39 30.68-22.16 31.3-19.92 31.3-17.5ZM24.29-17.5L24.29-17.5Q24.29-19.68 23.47-21.58 22.66-23.49 21.23-24.91 19.8-26.34 17.88-27.17 15.97-28 13.79-28L13.79-28 10.3-28 10.3-7.01 13.79-7.01Q15.97-7.01 17.88-7.82 19.8-8.64 21.23-10.07 22.66-11.5 23.47-13.42 24.29-15.33 24.29-17.5ZM41.89-14.4L41.89 0 35.23 0 35.23-26.15 36.84-26.15 39.04-23.05Q40.65-24.51 42.7-25.31 44.75-26.1 46.95-26.1L46.95-26.1 52.83-26.1 52.83-19.46 46.95-19.46Q45.9-19.46 44.97-19.07 44.04-18.68 43.36-17.99 42.67-17.31 42.28-16.38 41.89-15.45 41.89-14.4L41.89-14.4ZM78.83-21.46L66.33-6.4Q66.72-6.27 67.11-6.24 67.5-6.2 67.89-6.2L67.89-6.2Q68.87-6.2 69.77-6.47 70.67-6.74 71.47-7.24 72.26-7.74 72.88-8.46 73.51-9.18 73.9-10.06L73.9-10.06 78.78-5.15Q77.85-3.83 76.64-2.78 75.43-1.73 74.03-1 72.63-0.27 71.08 0.11 69.53 0.49 67.89 0.49L67.89 0.49Q65.13 0.49 62.7-0.54 60.27-1.56 58.45-3.39 56.64-5.22 55.59-7.75 54.54-10.28 54.54-13.31L54.54-13.31Q54.54-16.41 55.59-18.97 56.64-21.53 58.45-23.34 60.27-25.15 62.7-26.15 65.13-27.15 67.89-27.15L67.89-27.15Q69.53-27.15 71.09-26.76 72.65-26.37 74.06-25.63 75.46-24.9 76.68-23.84 77.9-22.78 78.83-21.46L78.83-21.46ZM61.98-9.84L69.75-20.14Q69.28-20.31 68.83-20.36 68.38-20.41 67.89-20.41L67.89-20.41Q66.52-20.41 65.31-19.91 64.11-19.41 63.22-18.48 62.32-17.55 61.81-16.25 61.3-14.94 61.3-13.31L61.3-13.31Q61.3-12.94 61.34-12.48 61.37-12.01 61.46-11.54 61.54-11.06 61.66-10.62 61.79-10.18 61.98-9.84L61.98-9.84ZM107.49-26.1L107.49 0 105.88 0 103.29-3.59Q102.34-2.73 101.27-1.99 100.21-1.25 99.04-0.7 97.87-0.15 96.64 0.17 95.4 0.49 94.13 0.49L94.13 0.49Q91.37 0.49 88.95-0.44 86.52-1.37 84.7-3.14 82.88-4.91 81.83-7.47 80.78-10.03 80.78-13.31L80.78-13.31Q80.78-16.36 81.83-18.91 82.88-21.46 84.7-23.29 86.52-25.12 88.95-26.14 91.37-27.15 94.13-27.15L94.13-27.15Q95.4-27.15 96.65-26.83 97.89-26.51 99.06-25.95 100.24-25.39 101.3-24.63 102.36-23.88 103.29-23L103.29-23 105.88-26.1 107.49-26.1ZM100.77-13.31L100.77-13.31Q100.77-14.67 100.25-15.95 99.72-17.24 98.82-18.23 97.92-19.21 96.71-19.81 95.5-20.41 94.13-20.41L94.13-20.41Q92.77-20.41 91.56-19.95 90.35-19.48 89.46-18.58 88.57-17.68 88.05-16.35 87.54-15.01 87.54-13.31L87.54-13.31Q87.54-11.6 88.05-10.27 88.57-8.94 89.46-8.03 90.35-7.13 91.56-6.67 92.77-6.2 94.13-6.2L94.13-6.2Q95.5-6.2 96.71-6.8 97.92-7.4 98.82-8.39 99.72-9.38 100.25-10.66 100.77-11.94 100.77-13.31ZM145.82-16.6L145.82 0 139.17 0 139.17-16.6Q139.17-17.29 138.92-17.9 138.66-18.51 138.2-18.97 137.73-19.43 137.12-19.69 136.51-19.95 135.83-19.95L135.83-19.95Q135.15-19.95 134.55-19.69 133.95-19.43 133.5-18.97 133.05-18.51 132.79-17.9 132.53-17.29 132.53-16.6L132.53-16.6 132.53 0 125.87 0 125.87-16.6Q125.87-17.29 125.61-17.9 125.36-18.51 124.89-18.97 124.43-19.43 123.82-19.69 123.21-19.95 122.52-19.95L122.52-19.95Q121.84-19.95 121.24-19.69 120.64-19.43 120.19-18.97 119.74-18.51 119.48-17.9 119.23-17.29 119.23-16.6L119.23-16.6 119.23 0 112.56 0 112.56-26.15 114.17-26.15 115.98-24.15Q117.37-25.32 119.05-25.96 120.72-26.61 122.52-26.61L122.52-26.61Q124.36-26.61 126.1-25.93 127.85-25.24 129.16-23.56L129.16-23.56Q129.78-24.39 130.56-24.98 131.34-25.56 132.2-25.93 133.07-26.29 134-26.45 134.93-26.61 135.83-26.61L135.83-26.61Q137.91-26.61 139.72-25.83 141.54-25.05 142.9-23.69 144.25-22.34 145.03-20.51 145.82-18.68 145.82-16.6L145.82-16.6Z" fill="#000000" data-fill-palette-color="primary"></path><path d="M170.06-13.99L170.06 0 163.05 0 163.05-35.01 170.06-35.01 170.06-21 184.05-21 184.05-35.01 191.06-35.01 191.06 0 184.05 0 184.05-13.99 170.06-13.99ZM222.11-13.31L222.11-13.31Q222.11-10.38 221.06-7.85 220.01-5.32 218.2-3.48 216.4-1.64 213.97-0.57 211.54 0.49 208.75 0.49L208.75 0.49Q206 0.49 203.57-0.57 201.14-1.64 199.32-3.48 197.5-5.32 196.45-7.85 195.4-10.38 195.4-13.31L195.4-13.31Q195.4-16.28 196.45-18.82 197.5-21.36 199.32-23.21 201.14-25.05 203.57-26.1 206-27.15 208.75-27.15L208.75-27.15Q211.54-27.15 213.97-26.16 216.4-25.17 218.2-23.35 220.01-21.53 221.06-18.98 222.11-16.43 222.11-13.31ZM215.4-13.31L215.4-13.31Q215.4-14.92 214.87-16.22 214.35-17.53 213.44-18.47 212.54-19.41 211.33-19.91 210.12-20.41 208.75-20.41L208.75-20.41Q207.39-20.41 206.18-19.91 204.97-19.41 204.08-18.47 203.19-17.53 202.68-16.22 202.16-14.92 202.16-13.31L202.16-13.31Q202.16-11.79 202.68-10.5 203.19-9.2 204.08-8.25 204.97-7.3 206.18-6.75 207.39-6.2 208.75-6.2L208.75-6.2Q210.12-6.2 211.33-6.71 212.54-7.23 213.44-8.15 214.35-9.08 214.87-10.4 215.4-11.72 215.4-13.31ZM259.04-16.6L259.04 0 252.4 0 252.4-16.6Q252.4-17.29 252.15-17.9 251.89-18.51 251.43-18.97 250.96-19.43 250.35-19.69 249.74-19.95 249.06-19.95L249.06-19.95Q248.38-19.95 247.78-19.69 247.18-19.43 246.73-18.97 246.28-18.51 246.02-17.9 245.76-17.29 245.76-16.6L245.76-16.6 245.76 0 239.1 0 239.1-16.6Q239.1-17.29 238.84-17.9 238.59-18.51 238.12-18.97 237.66-19.43 237.05-19.69 236.44-19.95 235.75-19.95L235.75-19.95Q235.07-19.95 234.47-19.69 233.87-19.43 233.42-18.97 232.97-18.51 232.71-17.9 232.46-17.29 232.46-16.6L232.46-16.6 232.46 0 225.79 0 225.79-26.15 227.4-26.15 229.21-24.15Q230.6-25.32 232.27-25.96 233.95-26.61 235.75-26.61L235.75-26.61Q237.58-26.61 239.33-25.93 241.08-25.24 242.39-23.56L242.39-23.56Q243-24.39 243.79-24.98 244.57-25.56 245.43-25.93 246.3-26.29 247.23-26.45 248.16-26.61 249.06-26.61L249.06-26.61Q251.13-26.61 252.95-25.83 254.77-25.05 256.13-23.69 257.48-22.34 258.26-20.51 259.04-18.68 259.04-16.6L259.04-16.6ZM286.8-21.46L274.3-6.4Q274.69-6.27 275.08-6.24 275.47-6.2 275.86-6.2L275.86-6.2Q276.84-6.2 277.74-6.47 278.65-6.74 279.44-7.24 280.23-7.74 280.86-8.46 281.48-9.18 281.87-10.06L281.87-10.06 286.75-5.15Q285.82-3.83 284.62-2.78 283.41-1.73 282-1 280.6-0.27 279.05 0.11 277.5 0.49 275.86 0.49L275.86 0.49Q273.1 0.49 270.68-0.54 268.25-1.56 266.43-3.39 264.61-5.22 263.56-7.75 262.51-10.28 262.51-13.31L262.51-13.31Q262.51-16.41 263.56-18.97 264.61-21.53 266.43-23.34 268.25-25.15 270.68-26.15 273.1-27.15 275.86-27.15L275.86-27.15Q277.5-27.15 279.06-26.76 280.62-26.37 282.03-25.63 283.43-24.9 284.65-23.84 285.87-22.78 286.8-21.46L286.8-21.46ZM269.96-9.84L277.72-20.14Q277.26-20.31 276.8-20.36 276.35-20.41 275.86-20.41L275.86-20.41Q274.5-20.41 273.29-19.91 272.08-19.41 271.19-18.48 270.3-17.55 269.78-16.25 269.27-14.94 269.27-13.31L269.27-13.31Q269.27-12.94 269.31-12.48 269.35-12.01 269.43-11.54 269.52-11.06 269.64-10.62 269.76-10.18 269.96-9.84L269.96-9.84ZM304.5 0L304.5 0 289.26 0 289.26-6.64 304.5-6.64Q305.18-6.64 305.67-7.13 306.16-7.62 306.16-8.3L306.16-8.3Q306.16-9.01 305.67-9.23 305.18-9.45 304.5-9.45L304.5-9.45 297.57-9.45Q295.83-9.45 294.32-10.11 292.8-10.77 291.68-11.9 290.56-13.04 289.91-14.55 289.26-16.06 289.26-17.8L289.26-17.8Q289.26-19.53 289.91-21.04 290.56-22.56 291.68-23.68 292.8-24.8 294.32-25.45 295.83-26.1 297.57-26.1L297.57-26.1 311.07-26.1 311.07-19.46 297.57-19.46Q296.88-19.46 296.39-18.97 295.91-18.48 295.91-17.8L295.91-17.8Q295.91-17.09 296.39-16.59 296.88-16.09 297.57-16.09L297.57-16.09 304.5-16.09Q306.21-16.09 307.72-15.52 309.24-14.94 310.36-13.92 311.48-12.89 312.14-11.45 312.8-10.01 312.8-8.3L312.8-8.3Q312.8-6.57 312.14-5.07 311.48-3.56 310.36-2.43 309.24-1.29 307.72-0.65 306.21 0 304.5 0Z" fill="#000000" data-fill-palette-color="secondary"></path></g></svg></g></svg></g><g transform="matrix(1,0,0,1,0,55.83615595177754)"><svg viewBox="0 0 395.52 33.87907941245778" height="33.87907941245778" width="395.52"><g transform="matrix(1,0,0,1,0,0)"><svg width="395.52" viewBox="3.25 -37.7 556.93 47.71" height="33.87907941245778" data-palette-color="#7e91c6"><path d="M10.25-13.99L10.25 0 3.25 0 3.25-35.01 27.76-35.01 27.76-28 10.25-28 10.25-21 20.75-21 20.75-13.99 10.25-13.99ZM43.55-33.25L43.55-33.25Q43.55-32.32 43.2-31.52 42.84-30.71 42.23-30.11 41.62-29.52 40.81-29.16 39.99-28.81 39.06-28.81L39.06-28.81Q38.13-28.81 37.31-29.16 36.5-29.52 35.9-30.11 35.3-30.71 34.95-31.52 34.59-32.32 34.59-33.25L34.59-33.25Q34.59-34.16 34.95-34.97 35.3-35.79 35.9-36.39 36.5-36.99 37.31-37.34 38.13-37.7 39.06-37.7L39.06-37.7Q39.99-37.7 40.81-37.34 41.62-36.99 42.23-36.39 42.84-35.79 43.2-34.97 43.55-34.16 43.55-33.25ZM42.4-26.15L42.4 0 35.69 0 35.69-26.15 42.4-26.15ZM59.2-14.94L59.2 0 52.53 0 52.53-26.15 54.14-26.15 56.34-23.61Q57.95-25.07 59.99-25.87 62.03-26.66 64.25-26.66L64.25-26.66Q66.64-26.66 68.77-25.74 70.89-24.83 72.48-23.23 74.07-21.63 74.98-19.49 75.9-17.36 75.9-14.94L75.9-14.94 75.9 0 69.23 0 69.23-14.94Q69.23-15.97 68.84-16.88 68.45-17.8 67.77-18.48 67.08-19.17 66.18-19.56 65.28-19.95 64.25-19.95L64.25-19.95Q63.2-19.95 62.27-19.56 61.35-19.17 60.66-18.48 59.98-17.8 59.59-16.88 59.2-15.97 59.2-14.94L59.2-14.94ZM110.95-36.55L110.95 0 109.34 0 106.75-3.59Q105.8-2.73 104.74-1.99 103.68-1.25 102.51-0.7 101.33-0.15 100.1 0.17 98.87 0.49 97.6 0.49L97.6 0.49Q94.84 0.49 92.41-0.55 89.98-1.59 88.16-3.43 86.34-5.27 85.29-7.8 84.24-10.33 84.24-13.31L84.24-13.31Q84.24-16.26 85.29-18.8 86.34-21.34 88.16-23.19 89.98-25.05 92.41-26.1 94.84-27.15 97.6-27.15L97.6-27.15Q98.48-27.15 99.42-27 100.36-26.86 101.25-26.53 102.14-26.2 102.92-25.66 103.7-25.12 104.24-24.34L104.24-24.34 104.24-36.55 110.95-36.55ZM104.24-13.31L104.24-13.31Q104.24-14.67 103.71-15.95 103.19-17.24 102.29-18.23 101.38-19.21 100.17-19.81 98.97-20.41 97.6-20.41L97.6-20.41Q96.23-20.41 95.02-19.92 93.81-19.43 92.92-18.52 92.03-17.6 91.52-16.28 91.01-14.97 91.01-13.31L91.01-13.31Q91.01-11.87 91.52-10.57 92.03-9.28 92.92-8.3 93.81-7.32 95.02-6.76 96.23-6.2 97.6-6.2L97.6-6.2Q98.97-6.2 100.17-6.8 101.38-7.4 102.29-8.39 103.19-9.38 103.71-10.66 104.24-11.94 104.24-13.31ZM149.84 10.01L146.42 9.96 146.42 3.25 150.13 3.3Q151.11 3.3 152.01 2.98 152.92 2.66 153.68 2.1 154.45 1.54 155.04 0.77 155.63 0 155.99-0.9L155.99-0.9Q154.89-0.44 153.76 0.02 152.62 0.49 151.47 0.49L151.47 0.49Q149.06 0.49 146.93-0.37 144.81-1.22 143.21-2.8 141.61-4.37 140.7-6.63 139.78-8.89 139.78-11.69L139.78-11.69 139.78-26.15 146.42-26.15 146.42-11.69Q146.42-10.3 146.82-9.27 147.23-8.23 147.91-7.53 148.59-6.84 149.51-6.49 150.43-6.15 151.47-6.15L151.47-6.15Q152.5-6.15 153.42-6.63 154.33-7.1 155.02-7.89 155.7-8.67 156.09-9.66 156.48-10.64 156.48-11.69L156.48-11.69 156.48-26.15 163.19-26.15 163.19-3.3Q163.17-0.54 162.12 1.88 161.07 4.3 159.25 6.1 157.43 7.91 155.02 8.96 152.6 10.01 149.84 10.01L149.84 10.01ZM198.59-13.31L198.59-13.31Q198.59-10.38 197.54-7.85 196.49-5.32 194.69-3.48 192.88-1.64 190.45-0.57 188.02 0.49 185.24 0.49L185.24 0.49Q182.48 0.49 180.05-0.57 177.62-1.64 175.8-3.48 173.98-5.32 172.93-7.85 171.88-10.38 171.88-13.31L171.88-13.31Q171.88-16.28 172.93-18.82 173.98-21.36 175.8-23.21 177.62-25.05 180.05-26.1 182.48-27.15 185.24-27.15L185.24-27.15Q188.02-27.15 190.45-26.16 192.88-25.17 194.69-23.35 196.49-21.53 197.54-18.98 198.59-16.43 198.59-13.31ZM191.88-13.31L191.88-13.31Q191.88-14.92 191.35-16.22 190.83-17.53 189.92-18.47 189.02-19.41 187.81-19.91 186.6-20.41 185.24-20.41L185.24-20.41Q183.87-20.41 182.66-19.91 181.45-19.41 180.56-18.47 179.67-17.53 179.16-16.22 178.64-14.92 178.64-13.31L178.64-13.31Q178.64-11.79 179.16-10.5 179.67-9.2 180.56-8.25 181.45-7.3 182.66-6.75 183.87-6.2 185.24-6.2L185.24-6.2Q186.6-6.2 187.81-6.71 189.02-7.23 189.92-8.15 190.83-9.08 191.35-10.4 191.88-11.72 191.88-13.31ZM228.74 0L226.54-3.05Q225.74-2.32 224.82-1.67 223.91-1.03 222.9-0.55 221.9-0.07 220.84 0.21 219.78 0.49 218.68 0.49L218.68 0.49Q216.26 0.49 214.14-0.37 212.02-1.22 210.42-2.8 208.82-4.37 207.9-6.63 206.99-8.89 206.99-11.69L206.99-11.69 206.99-26.15 213.63-26.15 213.63-11.69Q213.63-10.38 214.03-9.34 214.43-8.3 215.12-7.59 215.8-6.88 216.72-6.52 217.63-6.15 218.68-6.15L218.68-6.15Q219.71-6.15 220.62-6.63 221.54-7.1 222.22-7.89 222.9-8.67 223.3-9.66 223.69-10.64 223.69-11.69L223.69-11.69 223.69-26.15 230.35-26.15 230.35 0 228.74 0ZM247.15-14.4L247.15 0 240.48 0 240.48-26.15 242.09-26.15 244.29-23.05Q245.9-24.51 247.95-25.31 250-26.1 252.2-26.1L252.2-26.1 258.08-26.1 258.08-19.46 252.2-19.46Q251.15-19.46 250.22-19.07 249.29-18.68 248.61-17.99 247.93-17.31 247.54-16.38 247.15-15.45 247.15-14.4L247.15-14.4ZM291.94-14.94L291.94 0 285.27 0 285.27-26.15 286.89-26.15 289.08-23.61Q290.69-25.07 292.73-25.87 294.77-26.66 296.99-26.66L296.99-26.66Q299.39-26.66 301.51-25.74 303.63-24.83 305.22-23.23 306.81-21.63 307.72-19.49 308.64-17.36 308.64-14.94L308.64-14.94 308.64 0 301.97 0 301.97-14.94Q301.97-15.97 301.58-16.88 301.19-17.8 300.51-18.48 299.82-19.17 298.92-19.56 298.02-19.95 296.99-19.95L296.99-19.95Q295.94-19.95 295.02-19.56 294.09-19.17 293.4-18.48 292.72-17.8 292.33-16.88 291.94-15.97 291.94-14.94L291.94-14.94ZM341.33-21.46L328.83-6.4Q329.22-6.27 329.61-6.24 330-6.2 330.39-6.2L330.39-6.2Q331.37-6.2 332.27-6.47 333.17-6.74 333.97-7.24 334.76-7.74 335.38-8.46 336-9.18 336.39-10.06L336.39-10.06 341.28-5.15Q340.35-3.83 339.14-2.78 337.93-1.73 336.53-1 335.12-0.27 333.57 0.11 332.02 0.49 330.39 0.49L330.39 0.49Q327.63 0.49 325.2-0.54 322.77-1.56 320.95-3.39 319.13-5.22 318.08-7.75 317.03-10.28 317.03-13.31L317.03-13.31Q317.03-16.41 318.08-18.97 319.13-21.53 320.95-23.34 322.77-25.15 325.2-26.15 327.63-27.15 330.39-27.15L330.39-27.15Q332.02-27.15 333.59-26.76 335.15-26.37 336.55-25.63 337.96-24.9 339.18-23.84 340.4-22.78 341.33-21.46L341.33-21.46ZM324.48-9.84L332.24-20.14Q331.78-20.31 331.33-20.36 330.88-20.41 330.39-20.41L330.39-20.41Q329.02-20.41 327.81-19.91 326.6-19.41 325.71-18.48 324.82-17.55 324.31-16.25 323.8-14.94 323.8-13.31L323.8-13.31Q323.8-12.94 323.83-12.48 323.87-12.01 323.96-11.54 324.04-11.06 324.16-10.62 324.29-10.18 324.48-9.84L324.48-9.84ZM363.98-13.4L373.55 0 365.4 0 360.2-8.01 354.95 0 346.79 0 356.34-13.4 346.79-26.29 354.95-26.29 360.2-18.8 365.4-26.29 373.55-26.29 363.98-13.4ZM399.13 0L394.08 0Q391.66 0 389.54-0.92 387.41-1.83 385.81-3.43 384.22-5.03 383.3-7.15 382.38-9.28 382.38-11.69L382.38-11.69 382.38-19.46 379.14-19.46 379.14-26.1 382.38-26.1 382.38-36.55 389.03-36.55 389.03-26.1 399.13-26.1 399.13-19.46 389.03-19.46 389.03-11.69Q389.03-10.64 389.42-9.73 389.81-8.81 390.49-8.13 391.17-7.45 392.1-7.04 393.03-6.64 394.08-6.64L394.08-6.64 399.13-6.64 399.13 0ZM433.62-14.94L433.62 0 426.96 0 426.96-36.55 433.62-36.55 433.62-25Q434.82-25.9 436.09-26.28 437.36-26.66 438.68-26.66L438.68-26.66Q441.09-26.66 443.22-25.74 445.34-24.83 446.92-23.23 448.49-21.63 449.41-19.49 450.32-17.36 450.32-14.94L450.32-14.94 450.32 0 443.61 0 443.61-14.94 443.66-14.94Q443.66-15.97 443.27-16.88 442.88-17.8 442.19-18.48 441.51-19.17 440.61-19.56 439.7-19.95 438.68-19.95L438.68-19.95Q437.63-19.95 436.7-19.56 435.77-19.17 435.09-18.48 434.41-17.8 434.01-16.88 433.62-15.97 433.62-14.94L433.62-14.94ZM485.38-13.31L485.38-13.31Q485.38-10.38 484.33-7.85 483.28-5.32 481.47-3.48 479.67-1.64 477.24-0.57 474.81 0.49 472.02 0.49L472.02 0.49Q469.27 0.49 466.84-0.57 464.41-1.64 462.59-3.48 460.77-5.32 459.72-7.85 458.67-10.38 458.67-13.31L458.67-13.31Q458.67-16.28 459.72-18.82 460.77-21.36 462.59-23.21 464.41-25.05 466.84-26.1 469.27-27.15 472.02-27.15L472.02-27.15Q474.81-27.15 477.24-26.16 479.67-25.17 481.47-23.35 483.28-21.53 484.33-18.98 485.38-16.43 485.38-13.31ZM478.67-13.31L478.67-13.31Q478.67-14.92 478.14-16.22 477.62-17.53 476.71-18.47 475.81-19.41 474.6-19.91 473.39-20.41 472.02-20.41L472.02-20.41Q470.66-20.41 469.45-19.91 468.24-19.41 467.35-18.47 466.46-17.53 465.95-16.22 465.43-14.92 465.43-13.31L465.43-13.31Q465.43-11.79 465.95-10.5 466.46-9.2 467.35-8.25 468.24-7.3 469.45-6.75 470.66-6.2 472.02-6.2L472.02-6.2Q473.39-6.2 474.6-6.71 475.81-7.23 476.71-8.15 477.62-9.08 478.14-10.4 478.67-11.72 478.67-13.31ZM527.37-16.6L527.37 0 520.73 0 520.73-16.6Q520.73-17.29 520.47-17.9 520.22-18.51 519.75-18.97 519.29-19.43 518.68-19.69 518.07-19.95 517.38-19.95L517.38-19.95Q516.7-19.95 516.1-19.69 515.5-19.43 515.05-18.97 514.6-18.51 514.34-17.9 514.09-17.29 514.09-16.6L514.09-16.6 514.09 0 507.42 0 507.42-16.6Q507.42-17.29 507.17-17.9 506.91-18.51 506.45-18.97 505.98-19.43 505.37-19.69 504.76-19.95 504.08-19.95L504.08-19.95Q503.39-19.95 502.8-19.69 502.2-19.43 501.75-18.97 501.29-18.51 501.04-17.9 500.78-17.29 500.78-16.6L500.78-16.6 500.78 0 494.12 0 494.12-26.15 495.73-26.15 497.53-24.15Q498.93-25.32 500.6-25.96 502.27-26.61 504.08-26.61L504.08-26.61Q505.91-26.61 507.65-25.93 509.4-25.24 510.72-23.56L510.72-23.56Q511.33-24.39 512.11-24.98 512.89-25.56 513.76-25.93 514.62-26.29 515.55-26.45 516.48-26.61 517.38-26.61L517.38-26.61Q519.46-26.61 521.28-25.83 523.1-25.05 524.45-23.69 525.81-22.34 526.59-20.51 527.37-18.68 527.37-16.6L527.37-16.6ZM560.18-21.46L547.68-6.4Q548.07-6.27 548.46-6.24 548.85-6.2 549.24-6.2L549.24-6.2Q550.22-6.2 551.12-6.47 552.02-6.74 552.82-7.24 553.61-7.74 554.23-8.46 554.86-9.18 555.25-10.06L555.25-10.06 560.13-5.15Q559.2-3.83 557.99-2.78 556.78-1.73 555.38-1 553.98-0.27 552.43 0.11 550.88 0.49 549.24 0.49L549.24 0.49Q546.48 0.49 544.05-0.54 541.62-1.56 539.8-3.39 537.99-5.22 536.94-7.75 535.89-10.28 535.89-13.31L535.89-13.31Q535.89-16.41 536.94-18.97 537.99-21.53 539.8-23.34 541.62-25.15 544.05-26.15 546.48-27.15 549.24-27.15L549.24-27.15Q550.88-27.15 552.44-26.76 554-26.37 555.41-25.63 556.81-24.9 558.03-23.84 559.25-22.78 560.18-21.46L560.18-21.46ZM543.33-9.84L551.1-20.14Q550.63-20.31 550.18-20.36 549.73-20.41 549.24-20.41L549.24-20.41Q547.87-20.41 546.66-19.91 545.46-19.41 544.57-18.48 543.67-17.55 543.16-16.25 542.65-14.94 542.65-13.31L542.65-13.31Q542.65-12.94 542.69-12.48 542.72-12.01 542.81-11.54 542.89-11.06 543.02-10.62 543.14-10.18 543.33-9.84L543.33-9.84Z" opacity="1" transform="matrix(1,0,0,1,0,0)" fill="#000000" class="slogan-text-1" data-fill-palette-color="secondary" id="text-1"></path></svg></g></svg></g></svg></g></svg></g><g><svg viewBox="0 0 135.09694613705972 123.98645527337325" height="123.98645527337325" width="135.09694613705972"><g><svg version="1.1" xmlns="http://www.w3.org/2000/svg" xmlns:xlink="http://www.w3.org/1999/xlink" x="0" y="0" viewBox="0.14570337834961225 4.1899999999999995 99.99900557195222 91.775" enable-background="new 0.146 4.189 100 91.775" xml:space="preserve" width="135.09694613705972" height="123.98645527337325" class="icon-icon-0" data-fill-palette-color="accent" id="icon-0"><g fill="#eb7043" data-fill-palette-color="accent"><path d="M99.511 38.569L50.993 4.606c-0.513-0.359-1.195-0.359-1.708 0L0.779 38.569c-0.323 0.228-0.542 0.573-0.611 0.961-0.068 0.389 0.021 0.789 0.247 1.112l6.606 9.434c0.291 0.415 0.751 0.635 1.222 0.635 0.294 0 0.592-0.086 0.852-0.269l41.051-28.748 41.049 28.748c0.678 0.472 1.604 0.307 2.074-0.366l6.607-9.434c0.225-0.323 0.315-0.724 0.246-1.112C100.055 39.143 99.835 38.797 99.511 38.569z" fill="#000000" data-fill-palette-color="accent"></path><path d="M87.456 53.667l-36.457-25.53c-0.512-0.358-1.195-0.358-1.707 0L12.641 53.803c-0.398 0.277-0.635 0.733-0.635 1.22v39.454c0 0.82 0.667 1.488 1.49 1.488h25.502c0.822 0 1.489-0.668 1.489-1.488V60.095h19.32v34.382c0 0.82 0.666 1.488 1.489 1.488h25.309c0.823 0 1.486-0.668 1.486-1.488V54.886C88.09 54.4 87.855 53.946 87.456 53.667z" fill="#000000" data-fill-palette-color="accent"></path><path d="M74.213 15.768l11.411 7.99c0.256 0.178 0.554 0.269 0.854 0.269 0.236 0 0.474-0.056 0.688-0.167 0.49-0.256 0.801-0.766 0.801-1.321V5.678c0-0.822-0.667-1.488-1.489-1.488H75.065c-0.822 0-1.488 0.667-1.488 1.488v8.871C73.576 15.033 73.812 15.489 74.213 15.768z" fill="#000000" data-fill-palette-color="accent"></path></g></svg></g></svg></g></svg></g><defs></defs></svg><rect width="395.52" height="90.59827175440164" fill="none" stroke="none" visibility="hidden"></rect></g></svg></g></svg>