<svg xmlns="http://www.w3.org/2000/svg" version="1.1" xmlns:xlink="http://www.w3.org/1999/xlink" xmlns:svgjs="http://svgjs.dev/svgjs" width="2000" height="1500" viewBox="0 0 2000 1500"><rect width="2000" height="1500" fill="#ffffff"></rect><g transform="matrix(0.75,0,0,0.75,249.09090909090924,371.973122546626)"><svg viewBox="0 0 396 200" data-background-color="#ffffff" preserveAspectRatio="xMidYMid meet" height="1010" width="2000" xmlns="http://www.w3.org/2000/svg" xmlns:xlink="http://www.w3.org/1999/xlink"><g id="tight-bounds" transform="matrix(1,0,0,1,0.23999999999995225,-0.1909234446537056)"><svg viewBox="0 0 395.52 200.3818468893074" height="200.3818468893074" width="395.52"><g><svg viewBox="0 0 395.52000000000004 200.38184688930744" height="200.3818468893074" width="395.52"><g transform="matrix(1,0,0,1,0,120.52706592864091)"><svg viewBox="0 0 395.52000000000004 79.85478096066652" height="79.85478096066652" width="395.52000000000004"><g id="textblocktransform"><svg viewBox="0 0 395.52000000000004 79.85478096066652" height="79.85478096066652" width="395.52000000000004" id="textblock"><g><svg viewBox="0 0 395.52000000000004 43.06985310238983" height="43.06985310238983" width="395.52000000000004"><g transform="matrix(1,0,0,1,0,0)"><svg width="395.52000000000004" viewBox="1.07 -35.79 335.34 36.38" height="43.06985310238983" data-palette-color="#6abc74"><g class="wordmark-text-0" data-fill-palette-color="primary" id="text-0"><path d="M28.91-19.38L28.91-19.38Q28.91-15.97 28.03-13.22 27.15-10.47 25.57-8.34 24-6.2 21.83-4.66 19.65-3.13 17.07-2.14 14.48-1.15 11.56-0.67 8.64-0.2 5.57-0.2L5.57-0.2Q4.42-0.2 3.32-0.26 2.22-0.32 1.07-0.44L1.07-0.44 1.76-33.2Q4.44-34.06 7.29-34.41 10.13-34.77 12.94-34.77L12.94-34.77Q16.43-34.77 19.36-33.72 22.29-32.67 24.41-30.69 26.54-28.71 27.72-25.85 28.91-23 28.91-19.38ZM18.9-17.48L18.9-17.82Q18.92-19.14 18.62-20.36 18.31-21.58 17.61-22.52 16.92-23.46 15.84-24.04 14.77-24.61 13.28-24.66L13.28-24.66 12.3-9.52Q13.77-9.74 14.97-10.49 16.16-11.23 17.03-12.32 17.9-13.4 18.37-14.73 18.85-16.06 18.9-17.48L18.9-17.48ZM58.98-23.54L58.98-23.54Q58.98-21.63 58.65-20.08 58.32-18.53 57.61-17.24 56.91-15.94 55.78-14.84 54.66-13.75 53.07-12.74L53.07-12.74 58.88-2.39 47.9-0.24 44.14-10.64 41.11-10.55 40.67-0.39 30.17-0.39Q30.3-5.96 30.41-11.47 30.52-16.99 30.66-22.56L30.66-22.56Q30.71-25.37 30.76-28.13 30.81-30.88 30.95-33.69L30.95-33.69Q32.66-34.33 34.32-34.74 35.98-35.16 37.66-35.39 39.33-35.62 41.05-35.71 42.77-35.79 44.58-35.79L44.58-35.79Q47.36-35.79 49.96-35.02 52.56-34.25 54.56-32.71 56.56-31.18 57.77-28.88 58.98-26.59 58.98-23.54ZM48.04-22.75L48.04-22.75Q48.04-23.78 47.76-24.63 47.48-25.49 46.93-26.11 46.38-26.73 45.57-27.09 44.75-27.44 43.65-27.44L43.65-27.44Q43.16-27.44 42.7-27.38 42.23-27.32 41.79-27.2L41.79-27.2 41.4-18.12 41.99-18.12Q43.04-18.12 44.13-18.38 45.21-18.65 46.08-19.21 46.95-19.78 47.5-20.65 48.04-21.53 48.04-22.75ZM87.91-19.73L87.91-19.73Q87.91-17.6 87.62-15.48L87.62-15.48Q83.44-15.21 79.32-14.61 75.19-14.01 71.06-13.43L71.06-13.43Q71.7-11.67 73.05-10.62 74.41-9.57 76.29-9.57L76.29-9.57Q77.27-9.57 78.43-9.94 79.58-10.3 80.73-10.85 81.88-11.4 82.93-12.04 83.98-12.67 84.74-13.18L84.74-13.18 83.56-2.1Q82.61-1.37 81.5-0.85 80.39-0.34 79.19-0.02 78 0.29 76.78 0.44 75.56 0.59 74.38 0.59L74.38 0.59Q71.97 0.59 69.97-0.07 67.96-0.73 66.34-1.92 64.72-3.1 63.5-4.71 62.28-6.32 61.47-8.23 60.66-10.13 60.25-12.26 59.83-14.38 59.83-16.55L59.83-16.55Q59.83-18.82 60.25-21.09 60.66-23.36 61.51-25.46 62.35-27.56 63.63-29.36 64.91-31.15 66.62-32.5 68.33-33.84 70.49-34.59 72.65-35.35 75.26-35.35L75.26-35.35Q77.44-35.35 79.23-34.75 81.03-34.16 82.43-33.09 83.83-32.03 84.87-30.57 85.91-29.1 86.58-27.36 87.25-25.61 87.58-23.67 87.91-21.73 87.91-19.73ZM78.14-20.46L78.14-21Q78.14-21.68 78-22.4 77.85-23.12 77.52-23.71 77.19-24.29 76.66-24.67 76.12-25.05 75.31-25.05L75.31-25.05Q74.34-25.05 73.59-24.52 72.85-24 72.31-23.21 71.77-22.41 71.43-21.48 71.09-20.56 70.92-19.78L70.92-19.78 78.14-20.46ZM110.76-34.96L120.28-2.1 108.17-0.54 106.71-6.05 101.14-6.05 99.92-0.54 87.47-1.76 97.18-34.28 110.76-34.96ZM102.17-13.53L105.83-13.53 103.97-22.02 102.17-13.53ZM163.47-16.55L163.47-16.55Q163.47-13.06 163.25-9.59 163.03-6.13 162.73-2.64L162.73-2.64 150.19-2.05Q150.75-6.3 151.2-10.56 151.65-14.82 151.65-19.09L151.65-19.09Q151.65-19.36 151.63-20.03 151.6-20.7 151.54-21.56 151.48-22.41 151.37-23.33 151.26-24.24 151.08-25.01 150.89-25.78 150.62-26.27 150.36-26.76 149.99-26.76L149.99-26.76Q149.14-26.76 148.65-26.11 148.16-25.46 147.93-24.56 147.7-23.66 147.65-22.72 147.6-21.78 147.6-21.19L147.6-21.19Q147.6-20.17 147.65-19.14 147.7-18.12 147.7-17.04L147.7-17.04Q147.7-13.26 147.51-9.5 147.33-5.74 147.06-1.95L147.06-1.95 135.49-1.51Q136.05-5.76 136.48-10 136.9-14.23 136.9-18.51L136.9-18.51Q136.9-18.77 136.88-19.48 136.86-20.19 136.79-21.07 136.73-21.95 136.61-22.9 136.49-23.85 136.31-24.65 136.12-25.44 135.85-25.95 135.59-26.46 135.2-26.46L135.2-26.46Q134.58-26.46 134.17-25.99 133.75-25.51 133.5-24.76 133.24-24 133.11-23.08 132.97-22.17 132.91-21.29 132.85-20.41 132.84-19.67 132.83-18.92 132.8-18.55L132.8-18.55 132.27-0.73 119.96-0.73Q120.35-4.86 120.75-9.01 121.16-13.16 121.46-17.3 121.77-21.44 121.96-25.59 122.16-29.74 122.16-33.89L122.16-33.89 133.78-34.38 133.73-31.54Q134.27-32.23 134.95-32.92 135.63-33.62 136.4-34.17 137.17-34.72 138.04-35.06 138.91-35.4 139.83-35.4L139.83-35.4Q141.03-35.4 141.98-35.22 142.93-35.03 143.7-34.59 144.47-34.16 145.06-33.39 145.64-32.62 146.08-31.45L146.08-31.45Q146.87-32.3 147.66-33.03 148.45-33.76 149.33-34.29 150.21-34.81 151.24-35.11 152.26-35.4 153.51-35.4L153.51-35.4Q155.87-35.4 157.53-34.48 159.19-33.57 160.3-32.06 161.42-30.54 162.04-28.59 162.66-26.64 162.98-24.54 163.3-22.44 163.38-20.36 163.47-18.29 163.47-16.55Z" fill="#6abc74" data-fill-palette-color="primary"></path><path d="M202.68-34.81L203.46 0 191.25 0.59 191.15-10.69 185.54-10.69 185.2 0 174.26 0 175.19-34.33 186.81-33.79 186.07-16.26 191.49-16.26 191.54-35.11 202.68-34.81ZM235.95-18.7L235.95-18.7Q235.95-16.48 235.44-14.42 234.92-12.35 233.96-10.55 233-8.74 231.62-7.24 230.24-5.74 228.52-4.66 226.8-3.59 224.77-2.99 222.74-2.39 220.47-2.39L220.47-2.39Q218.27-2.39 216.28-2.95 214.3-3.52 212.56-4.53 210.83-5.54 209.42-6.97 208.02-8.4 207.03-10.14 206.04-11.89 205.49-13.89 204.94-15.89 204.94-18.07L204.94-18.07Q204.94-20.19 205.46-22.23 205.97-24.27 206.93-26.07 207.9-27.88 209.27-29.39 210.63-30.91 212.33-32.01 214.03-33.11 216-33.72 217.98-34.33 220.18-34.33L220.18-34.33Q223.72-34.33 226.64-33.23 229.55-32.13 231.62-30.09 233.68-28.05 234.82-25.16 235.95-22.27 235.95-18.7ZM225.11-18.07L225.11-18.07Q225.11-19.12 224.81-20.1 224.5-21.09 223.91-21.86 223.33-22.63 222.46-23.11 221.59-23.58 220.47-23.58L220.47-23.58Q219.32-23.58 218.42-23.17 217.52-22.75 216.87-22.03 216.22-21.31 215.88-20.35 215.54-19.38 215.54-18.31L215.54-18.31Q215.54-17.29 215.83-16.26 216.13-15.23 216.71-14.4 217.3-13.57 218.16-13.06 219.03-12.55 220.18-12.55L220.18-12.55Q221.33-12.55 222.24-13 223.16-13.45 223.79-14.22 224.43-14.99 224.77-15.99 225.11-16.99 225.11-18.07ZM280.33-16.55L280.33-16.55Q280.33-13.06 280.11-9.59 279.89-6.13 279.6-2.64L279.6-2.64 267.05-2.05Q267.61-6.3 268.06-10.56 268.52-14.82 268.52-19.09L268.52-19.09Q268.52-19.36 268.49-20.03 268.47-20.7 268.41-21.56 268.35-22.41 268.24-23.33 268.13-24.24 267.94-25.01 267.76-25.78 267.49-26.27 267.22-26.76 266.86-26.76L266.86-26.76Q266-26.76 265.51-26.11 265.03-25.46 264.79-24.56 264.56-23.66 264.51-22.72 264.46-21.78 264.46-21.19L264.46-21.19Q264.46-20.17 264.51-19.14 264.56-18.12 264.56-17.04L264.56-17.04Q264.56-13.26 264.38-9.5 264.19-5.74 263.93-1.95L263.93-1.95 252.35-1.51Q252.92-5.76 253.34-10 253.77-14.23 253.77-18.51L253.77-18.51Q253.77-18.77 253.75-19.48 253.72-20.19 253.66-21.07 253.6-21.95 253.48-22.9 253.36-23.85 253.17-24.65 252.99-25.44 252.72-25.95 252.45-26.46 252.06-26.46L252.06-26.46Q251.45-26.46 251.04-25.99 250.62-25.51 250.36-24.76 250.11-24 249.97-23.08 249.84-22.17 249.78-21.29 249.72-20.41 249.71-19.67 249.69-18.92 249.67-18.55L249.67-18.55 249.13-0.73 236.83-0.73Q237.22-4.86 237.62-9.01 238.02-13.16 238.33-17.3 238.63-21.44 238.83-25.59 239.02-29.74 239.02-33.89L239.02-33.89 250.65-34.38 250.6-31.54Q251.13-32.23 251.82-32.92 252.5-33.62 253.27-34.17 254.04-34.72 254.91-35.06 255.77-35.4 256.7-35.4L256.7-35.4Q257.9-35.4 258.85-35.22 259.8-35.03 260.57-34.59 261.34-34.16 261.92-33.39 262.51-32.62 262.95-31.45L262.95-31.45Q263.73-32.3 264.52-33.03 265.32-33.76 266.2-34.29 267.08-34.81 268.1-35.11 269.13-35.4 270.37-35.4L270.37-35.4Q272.74-35.4 274.4-34.48 276.06-33.57 277.17-32.06 278.28-30.54 278.9-28.59 279.53-26.64 279.84-24.54 280.16-22.44 280.25-20.36 280.33-18.29 280.33-16.55ZM309.8-19.73L309.8-19.73Q309.8-17.6 309.5-15.48L309.5-15.48Q305.33-15.21 301.2-14.61 297.08-14.01 292.95-13.43L292.95-13.43Q293.59-11.67 294.94-10.62 296.3-9.57 298.18-9.57L298.18-9.57Q299.15-9.57 300.31-9.94 301.47-10.3 302.62-10.85 303.77-11.4 304.82-12.04 305.87-12.67 306.62-13.18L306.62-13.18 305.45-2.1Q304.5-1.37 303.39-0.85 302.28-0.34 301.08-0.02 299.89 0.29 298.67 0.44 297.44 0.59 296.27 0.59L296.27 0.59Q293.86 0.59 291.85-0.07 289.85-0.73 288.23-1.92 286.6-3.1 285.38-4.71 284.16-6.32 283.36-8.23 282.55-10.13 282.14-12.26 281.72-14.38 281.72-16.55L281.72-16.55Q281.72-18.82 282.14-21.09 282.55-23.36 283.39-25.46 284.24-27.56 285.52-29.36 286.8-31.15 288.51-32.5 290.22-33.84 292.38-34.59 294.54-35.35 297.15-35.35L297.15-35.35Q299.32-35.35 301.12-34.75 302.91-34.16 304.32-33.09 305.72-32.03 306.76-30.57 307.8-29.1 308.47-27.36 309.14-25.61 309.47-23.67 309.8-21.73 309.8-19.73ZM300.03-20.46L300.03-21Q300.03-21.68 299.89-22.4 299.74-23.12 299.41-23.71 299.08-24.29 298.54-24.67 298.01-25.05 297.2-25.05L297.2-25.05Q296.22-25.05 295.48-24.52 294.73-24 294.2-23.21 293.66-22.41 293.32-21.48 292.98-20.56 292.81-19.78L292.81-19.78 300.03-20.46ZM336.41-12.5L336.41-12.5Q336.41-9.16 335.25-6.73 334.09-4.3 332.07-2.72 330.06-1.15 327.36-0.4 324.66 0.34 321.56 0.34L321.56 0.34Q320.37 0.34 318.94 0.02 317.51-0.29 316.05-0.77 314.58-1.25 313.23-1.79 311.87-2.34 310.82-2.83L310.82-2.83 311.9-12.4Q313.97-11.16 316.5-10.51 319.02-9.86 321.47-9.86L321.47-9.86Q321.93-9.86 322.59-9.9 323.25-9.94 323.85-10.12 324.44-10.3 324.86-10.67 325.27-11.04 325.27-11.72L325.27-11.72Q325.27-12.18 324.98-12.51 324.69-12.84 324.22-13.05 323.76-13.26 323.17-13.37 322.59-13.48 322.03-13.53 321.47-13.57 320.98-13.57 320.49-13.57 320.2-13.57L320.2-13.57Q318.1-13.57 316.37-14.23 314.65-14.89 313.42-16.1 312.19-17.31 311.5-19.03 310.82-20.75 310.82-22.85L310.82-22.85Q310.82-25.73 311.98-28.02 313.14-30.3 315.08-31.9 317.02-33.5 319.54-34.35 322.05-35.21 324.74-35.21L324.74-35.21Q325.93-35.21 327.2-35.12 328.47-35.03 329.73-34.81 330.99-34.59 332.18-34.25 333.38-33.91 334.45-33.4L334.45-33.4 333.53-23.49Q331.87-24.05 330.05-24.43 328.23-24.8 326.49-24.8L326.49-24.8Q326.18-24.8 325.68-24.79 325.18-24.78 324.63-24.72 324.08-24.66 323.52-24.54 322.95-24.41 322.52-24.21 322.08-24 321.81-23.66 321.54-23.32 321.56-22.85L321.56-22.85Q321.59-22.31 321.97-22.02 322.34-21.73 322.94-21.59 323.54-21.46 324.26-21.46 324.98-21.46 325.69-21.5 326.4-21.53 327.01-21.57 327.62-21.61 328.01-21.58L328.01-21.58Q329.96-21.46 331.52-20.75 333.09-20.04 334.17-18.87 335.26-17.7 335.83-16.08 336.41-14.45 336.41-12.5Z" fill="#7e91c6" data-fill-palette-color="secondary"></path></g></svg></g></svg></g><g transform="matrix(1,0,0,1,0,53.23761174338961)"><svg viewBox="0 0 395.52000000000004 26.617169217276913" height="26.617169217276913" width="395.52000000000004"><g transform="matrix(1,0,0,1,0,0)"><svg width="395.52000000000004" viewBox="1.51 -39.11 792.32 53.32" height="26.617169217276913" data-palette-color="#7e91c6"><path d="M21.39-35.25L21.39-35.25Q21.39-33.4 20.12-31.88 18.85-30.37 17.02-29.17 15.19-27.98 13.18-27.1 11.18-26.22 9.72-25.63L9.72-25.63Q9.72-24.61 9.67-23.54 9.62-22.46 9.52-21.39L9.52-21.39Q11.08-22.17 13.04-22.85 14.99-23.54 16.75-23.54L16.75-23.54Q18.16-23.54 19.07-22.95 19.97-22.36 19.97-20.9L19.97-20.9Q19.97-19.29 18.82-18.02 17.68-16.75 16.06-15.77 14.45-14.79 12.7-14.11 10.94-13.43 9.72-13.04L9.72-13.04Q9.72-11.43 9.67-9.84 9.62-8.25 9.52-6.69L9.52-6.69Q9.47-5.91 9.35-4.74 9.23-3.56 8.86-2.47 8.5-1.37 7.81-0.56 7.13 0.24 6.05 0.24L6.05 0.24Q5.03 0.24 4.3-0.76 3.56-1.76 3.05-3.32 2.54-4.88 2.22-6.81 1.9-8.74 1.73-10.6 1.56-12.45 1.54-14.01 1.51-15.58 1.51-16.41L1.51-16.41Q1.51-17.04 1.54-18.29 1.56-19.53 1.59-21.04 1.61-22.56 1.68-24.22 1.76-25.88 1.86-27.37 1.95-28.86 2.12-30 2.29-31.15 2.54-31.69L2.54-31.69Q3.08-32.76 5.1-33.81 7.13-34.86 9.62-35.67 12.11-36.47 14.48-36.99 16.85-37.5 18.12-37.5L18.12-37.5Q18.7-37.5 19.26-37.43 19.82-37.35 20.31-37.11 20.8-36.87 21.09-36.43 21.39-35.99 21.39-35.25ZM51.68-34.08L51.68-34.08Q51.68-33.4 51.31-32.86 50.94-32.32 50.36-31.91 49.77-31.49 49.09-31.27 48.4-31.05 47.82-31.05L47.82-31.05Q46.84-31.05 46.11-31.54 45.38-32.03 45.38-33.06L45.38-33.06Q45.38-33.79 45.74-34.35 46.11-34.91 46.65-35.28 47.18-35.64 47.87-35.84 48.55-36.04 49.19-36.04L49.19-36.04Q50.11-36.04 50.89-35.6 51.68-35.16 51.68-34.08ZM52.07-17.48L52.07-17.48Q52.07-16.8 52.07-16.04 52.07-15.28 52.02-14.6L52.02-14.6Q51.97-13.77 51.97-12.38 51.97-10.99 51.87-9.38 51.77-7.76 51.55-6.1 51.33-4.44 50.85-3.08 50.36-1.71 49.55-0.85 48.75 0 47.53 0.05L47.53 0.05Q46.6 0.1 45.96-0.68 45.33-1.46 44.91-2.71 44.5-3.96 44.3-5.49 44.11-7.03 44.01-8.47 43.91-9.91 43.91-11.13 43.91-12.35 43.91-12.94L43.91-12.94Q43.91-13.72 43.91-15.16 43.91-16.6 44.01-18.26 44.11-19.92 44.38-21.63 44.64-23.34 45.16-24.76 45.67-26.17 46.5-27.05 47.33-27.93 48.6-27.93L48.6-27.93Q49.92-27.93 50.6-26.61 51.28-25.29 51.63-23.54 51.97-21.78 52.02-20.04 52.07-18.31 52.07-17.48ZM91.39 1.37L91.39 1.37Q90.56 1.37 90.07 0.61 89.58-0.15 89.34-1.12 89.09-2.1 89.02-3.1 88.95-4.1 88.95-4.64L88.95-4.64Q88.95-6.1 89.12-7.57 89.29-9.03 89.51-10.5 89.73-11.96 89.9-13.43 90.07-14.89 90.07-16.36L90.07-16.36Q90.07-16.94 90.02-17.63 89.97-18.31 89.8-18.92 89.63-19.53 89.24-19.92 88.85-20.31 88.21-20.31L88.21-20.31Q87.77-20.31 87.24-19.6 86.7-18.9 86.24-17.99 85.77-17.09 85.46-16.19 85.14-15.28 85.14-14.84L85.14-14.84Q85.14-13.77 85.16-12.67 85.19-11.57 85.19-10.45L85.19-10.45 85.19-7.62Q85.14-6.74 85.04-5.81 84.94-4.88 84.75-4L84.75-4Q84.6-3.13 84.31-2.32 84.02-1.51 83.55-0.9 83.09-0.29 82.45 0.1 81.82 0.49 80.94 0.49L80.94 0.49Q79.96 0.49 79.33-0.15 78.69-0.78 78.3-1.78 77.91-2.78 77.74-4.03 77.57-5.27 77.5-6.47 77.42-7.67 77.45-8.67 77.47-9.67 77.47-10.25L77.47-10.25 77.47-12.55Q77.47-14.4 77.4-16.21 77.33-18.02 77.33-19.82L77.33-19.82Q77.33-20.8 77.35-22.31 77.37-23.83 77.72-25.27 78.06-26.71 78.84-27.73 79.62-28.76 81.13-28.76L81.13-28.76Q81.82-28.76 82.35-28.32 82.89-27.88 83.31-27.25 83.72-26.61 83.99-25.88 84.26-25.15 84.41-24.61L84.41-24.61Q84.89-25.29 85.55-25.93 86.21-26.56 87.04-27.05 87.87-27.54 88.9-27.83 89.92-28.13 91.24-28.13L91.24-28.13Q93.73-28.13 95.12-26.93 96.52-25.73 97.17-23.95 97.83-22.17 97.98-20.12 98.13-18.07 98.13-16.41L98.13-16.41Q98.13-15.58 97.98-13.94 97.83-12.3 97.52-10.33 97.2-8.35 96.66-6.27 96.12-4.2 95.39-2.49 94.66-0.78 93.66 0.29 92.66 1.37 91.39 1.37ZM143.89-32.13L143.89-32.13Q143.89-28.56 143.63-25.05 143.36-21.53 143.36-17.97L143.36-17.97Q143.36-15.09 143.53-12.26 143.7-9.42 143.7-6.54L143.7-6.54Q143.7-5.76 143.65-4.66 143.6-3.56 143.33-2.54 143.06-1.51 142.45-0.78 141.84-0.05 140.72-0.05L140.72-0.05Q139.26-0.05 138.3-1.15 137.35-2.25 137.11-3.61L137.11-3.61Q136.18-1.86 134.42-0.63 132.66 0.59 130.61 0.59L130.61 0.59Q128.42 0.59 126.83-0.93 125.24-2.44 124.19-4.59 123.14-6.74 122.63-9.08 122.12-11.43 122.12-13.13L122.12-13.13Q122.12-14.36 122.26-15.92 122.41-17.48 122.78-19.09 123.14-20.7 123.73-22.24 124.31-23.78 125.22-25 126.12-26.22 127.37-26.95 128.61-27.69 130.22-27.69L130.22-27.69Q131.98-27.69 133.59-26.66 135.2-25.63 136.03-24.12L136.03-24.12 136.47-31.88Q136.52-32.81 136.62-34.06 136.72-35.3 137.03-36.43 137.35-37.55 138.03-38.33 138.72-39.11 140.04-39.11L140.04-39.11Q141.45-39.11 142.23-38.43 143.01-37.74 143.38-36.69 143.75-35.64 143.82-34.42 143.89-33.2 143.89-32.13ZM135.93-10.06L135.93-10.45Q135.93-11.57 135.89-12.65 135.84-13.72 135.89-14.84L135.89-14.84Q135.59-15.48 135.2-16.24 134.81-16.99 134.25-17.65 133.69-18.31 133.01-18.75 132.32-19.19 131.54-19.19L131.54-19.19Q130.66-19.19 130.12-18.65 129.59-18.12 129.34-17.36 129.1-16.6 129.03-15.72 128.95-14.84 128.95-14.21L128.95-14.21Q128.95-13.62 129.05-12.48 129.15-11.33 129.42-10.16 129.68-8.98 130.17-8.11 130.66-7.23 131.49-7.23L131.49-7.23Q132.13-7.23 132.76-7.5 133.4-7.76 133.96-8.18 134.52-8.59 135.03-9.11 135.54-9.62 135.93-10.06L135.93-10.06ZM213.46 14.21L213.46 14.21Q212.28 14.21 210.79 13.84 209.31 13.48 207.99 12.79 206.67 12.11 205.77 11.13 204.86 10.16 204.86 8.89L204.86 8.89Q204.86 8.4 205.11 7.91 205.35 7.42 205.77 7.06 206.18 6.69 206.67 6.47 207.16 6.25 207.69 6.25L207.69 6.25Q208.28 6.25 208.84 6.42 209.4 6.59 209.99 6.84L209.99 6.84Q210.62 7.08 211.23 7.28 211.84 7.47 212.53 7.47L212.53 7.47Q213.75 7.47 214.65 6.64 215.56 5.81 216.19 4.47 216.82 3.13 217.22 1.49 217.61-0.15 217.83-1.76 218.05-3.37 218.14-4.79 218.24-6.2 218.29-7.08L218.29-7.08Q216.58-4.49 214.9-3.1 213.21-1.71 210.77-1.71L210.77-1.71Q208.91-1.71 207.52-2.49 206.13-3.27 205.15-4.54 204.18-5.81 203.54-7.45 202.91-9.08 202.59-10.84 202.27-12.6 202.18-14.28 202.08-15.97 202.18-17.38L202.18-17.38Q202.23-18.46 202.44-20.19 202.66-21.92 203.15-23.58 203.64-25.24 204.52-26.39 205.4-27.54 206.82-27.44L206.82-27.44Q207.74-27.39 208.33-26.64 208.91-25.88 209.28-24.76 209.65-23.63 209.82-22.29 209.99-20.95 210.04-19.63 210.09-18.31 210.06-17.21 210.04-16.11 210.04-15.53L210.04-15.53Q210.04-14.7 210.09-13.87 210.14-13.04 210.43-12.38 210.72-11.72 211.33-11.33 211.94-10.94 213.07-10.94L213.07-10.94Q214.33-10.94 215.09-11.57 215.85-12.21 216.21-13.16 216.58-14.11 216.68-15.21 216.78-16.31 216.78-17.29L216.78-17.29Q216.78-17.97 216.78-18.95 216.78-19.92 216.8-21 216.82-22.07 217-23.12 217.17-24.17 217.53-25.02 217.9-25.88 218.51-26.42 219.12-26.95 220.1-26.95L220.1-26.95Q221.32-26.95 222.2-26 223.07-25.05 223.69-23.51 224.3-21.97 224.66-20.12 225.03-18.26 225.22-16.43 225.42-14.6 225.49-13.06 225.57-11.52 225.57-10.64L225.57-10.64Q225.57-8.59 225.42-5.98 225.27-3.37 224.86-0.61 224.44 2.15 223.61 4.81 222.78 7.47 221.44 9.57 220.1 11.67 218.14 12.94 216.19 14.21 213.46 14.21ZM260 1.42L260 1.42Q257.51 1.42 255.66 0.1 253.8-1.22 252.53-3.27 251.26-5.32 250.63-7.84 249.99-10.35 249.99-12.79L249.99-12.79Q249.99-15.38 250.63-18.14 251.26-20.9 252.58-23.17 253.9-25.44 255.95-26.88 258-28.32 260.83-28.32L260.83-28.32Q263.57-28.32 265.5-26.83 267.43-25.34 268.6-23.12 269.77-20.9 270.26-18.26 270.75-15.63 270.6-13.28L270.6-13.28Q270.45-10.69 269.79-8.06 269.14-5.42 267.87-3.32 266.6-1.22 264.64 0.1 262.69 1.42 260 1.42ZM260.49-20.65L260.49-20.65Q259.76-20.65 259.2-19.87 258.64-19.09 258.27-17.97 257.9-16.85 257.71-15.6 257.51-14.36 257.51-13.43L257.51-13.43Q257.51-12.26 257.73-10.89 257.95-9.52 258.34-8.37 258.73-7.23 259.3-6.47 259.86-5.71 260.59-5.71L260.59-5.71Q261.37-5.71 261.93-6.45 262.49-7.18 262.84-8.3 263.18-9.42 263.32-10.77 263.47-12.11 263.47-13.28L263.47-13.28Q263.47-14.36 263.28-15.65 263.08-16.94 262.71-18.07 262.35-19.19 261.79-19.92 261.22-20.65 260.49-20.65ZM316.46-13.96L316.46-13.96Q316.46-11.28 315.93-8.64 315.39-6.01 314.12-3.93 312.85-1.86 310.73-0.59 308.6 0.68 305.43 0.68L305.43 0.68Q302.3 0.68 300.21-0.56 298.11-1.81 296.86-3.86 295.62-5.91 295.1-8.5 294.59-11.08 294.59-13.77L294.59-13.77Q294.59-16.7 295.27-19.58L295.27-19.58Q295.42-20.36 295.84-21.75 296.25-23.14 296.91-24.49 297.57-25.83 298.42-26.81 299.28-27.78 300.3-27.78L300.3-27.78Q301.28-27.78 301.87-27.25 302.45-26.71 302.79-25.9 303.13-25.1 303.23-24.19 303.33-23.29 303.33-22.56L303.33-22.56Q303.33-21.44 303.16-20.36 302.99-19.29 302.79-18.21L302.79-18.21Q302.6-16.75 302.43-15.28 302.26-13.82 302.26-12.35L302.26-12.35Q302.26-11.62 302.33-10.72 302.4-9.81 302.7-8.98 302.99-8.15 303.53-7.59 304.06-7.03 305.04-7.03L305.04-7.03Q306.31-7.03 307.07-7.71 307.82-8.4 308.19-9.42 308.55-10.45 308.65-11.62 308.75-12.79 308.75-13.77L308.75-13.77Q308.75-15.92 308.46-17.99 308.16-20.07 307.92-22.22L307.92-22.22Q307.87-22.46 307.87-22.9L307.87-22.9Q307.87-23.63 308.12-24.37 308.36-25.1 308.8-25.68 309.24-26.27 309.87-26.64 310.51-27 311.29-27L311.29-27Q312.36-27 313.19-26.25 314.02-25.49 314.59-24.29 315.15-23.1 315.51-21.61 315.88-20.12 316.1-18.68 316.32-17.24 316.39-15.97 316.46-14.7 316.46-13.96ZM358.37-18.26L358.37-18.26Q357.69-18.21 357.2-18.38 356.71-18.55 356.23-18.75L356.23-18.75Q355.79-18.95 355.35-19.12 354.91-19.29 354.37-19.24L354.37-19.24Q353.39-19.19 352.64-18.7 351.88-18.21 351.27-17.48 350.66-16.75 350.22-15.84 349.78-14.94 349.54-14.06L349.54-14.06Q349.39-13.48 349.32-12.28 349.24-11.08 349.24-9.72L349.24-9.72Q349.2-8.3 349.2-7.03 349.2-5.76 349.1-5.03L349.1-5.03Q349.05-4.25 348.85-3.2 348.66-2.15 348.24-1.22 347.83-0.29 347.14 0.34 346.46 0.98 345.39 0.98L345.39 0.98Q344.56 0.98 343.95 0.49 343.34 0 342.92-0.81 342.51-1.61 342.24-2.69 341.97-3.76 341.82-4.88L341.82-4.88Q341.68-6.05 341.6-7.23 341.53-8.4 341.5-9.45 341.48-10.5 341.5-11.38 341.53-12.26 341.53-12.79L341.53-12.79Q341.48-14.5 341.36-16.24 341.24-17.97 341.24-19.68L341.24-19.68Q341.24-20.75 341.33-22.07 341.43-23.39 341.87-24.54 342.31-25.68 343.16-26.46 344.02-27.25 345.53-27.25L345.53-27.25Q346.36-27.25 346.95-26.71 347.54-26.17 347.9-25.39 348.27-24.61 348.46-23.73 348.66-22.85 348.71-22.12L348.71-22.12Q349.88-24.02 351.34-25.22 352.81-26.42 355.15-26.51L355.15-26.51Q356.32-26.56 357.47-26.29 358.62-26.03 359.57-25.42 360.52-24.8 361.13-23.83 361.74-22.85 361.79-21.53L361.79-21.53Q361.89-19.97 360.87-19.14 359.84-18.31 358.37-18.26ZM432.14 1.37L432.14 1.37Q431.31 1.37 430.82 0.61 430.33-0.15 430.09-1.12 429.84-2.1 429.77-3.1 429.69-4.1 429.69-4.64L429.69-4.64Q429.69-6.1 429.87-7.57 430.04-9.03 430.26-10.5 430.48-11.96 430.65-13.43 430.82-14.89 430.82-16.36L430.82-16.36Q430.82-16.94 430.77-17.63 430.72-18.31 430.55-18.92 430.38-19.53 429.99-19.92 429.6-20.31 428.96-20.31L428.96-20.31Q428.52-20.31 427.99-19.6 427.45-18.9 426.98-17.99 426.52-17.09 426.2-16.19 425.89-15.28 425.89-14.84L425.89-14.84Q425.89-13.77 425.91-12.67 425.93-11.57 425.93-10.45L425.93-10.45 425.93-7.62Q425.89-6.74 425.79-5.81 425.69-4.88 425.5-4L425.5-4Q425.35-3.13 425.06-2.32 424.76-1.51 424.3-0.9 423.84-0.29 423.2 0.1 422.57 0.49 421.69 0.49L421.69 0.49Q420.71 0.49 420.08-0.15 419.44-0.78 419.05-1.78 418.66-2.78 418.49-4.03 418.32-5.27 418.24-6.47 418.17-7.67 418.2-8.67 418.22-9.67 418.22-10.25L418.22-10.25 418.22-12.55Q418.22-14.4 418.15-16.21 418.07-18.02 418.07-19.82L418.07-19.82Q418.07-20.8 418.1-22.31 418.12-23.83 418.46-25.27 418.81-26.71 419.59-27.73 420.37-28.76 421.88-28.76L421.88-28.76Q422.57-28.76 423.1-28.32 423.64-27.88 424.05-27.25 424.47-26.61 424.74-25.88 425.01-25.15 425.15-24.61L425.15-24.61Q425.64-25.29 426.3-25.93 426.96-26.56 427.79-27.05 428.62-27.54 429.65-27.83 430.67-28.13 431.99-28.13L431.99-28.13Q434.48-28.13 435.87-26.93 437.26-25.73 437.92-23.95 438.58-22.17 438.73-20.12 438.87-18.07 438.87-16.41L438.87-16.41Q438.87-15.58 438.73-13.94 438.58-12.3 438.26-10.33 437.95-8.35 437.41-6.27 436.87-4.2 436.14-2.49 435.41-0.78 434.41 0.29 433.41 1.37 432.14 1.37ZM484.06-8.69L484.06-8.69Q484.06-7.03 483.01-5.44 481.96-3.86 480.37-2.61 478.78-1.37 476.98-0.61 475.17 0.15 473.66 0.15L473.66 0.15Q471.07 0.15 469.04-1.15 467.01-2.44 465.65-4.44 464.28-6.45 463.57-8.86 462.86-11.28 462.86-13.57L462.86-13.57Q462.86-16.02 463.55-18.8 464.23-21.58 465.62-23.93 467.01-26.27 469.14-27.83 471.26-29.39 474.19-29.39L474.19-29.39Q475.85-29.39 477.37-28.83 478.88-28.27 480-27.25 481.13-26.22 481.81-24.8 482.49-23.39 482.49-21.63L482.49-21.63Q482.49-19.34 481.52-17.33 480.54-15.33 478.93-13.87 477.32-12.4 475.22-11.5 473.12-10.6 470.92-10.5L470.92-10.5Q471.12-9.08 472.07-8.45 473.02-7.81 474.34-7.81L474.34-7.81Q475.32-7.81 476.24-8.3 477.17-8.79 478.05-9.4 478.93-10.01 479.78-10.5 480.64-10.99 481.52-10.99L481.52-10.99Q482.49-10.99 483.27-10.35 484.06-9.72 484.06-8.69ZM476.15-20.65L476.15-20.65Q476.15-21.29 475.8-21.97 475.46-22.66 474.73-22.66L474.73-22.66Q473.66-22.66 472.92-22.09 472.19-21.53 471.7-20.68 471.21-19.82 470.95-18.85 470.68-17.87 470.63-17.04L470.63-17.04Q471.31-17.19 472.26-17.43 473.22-17.68 474.07-18.09 474.92-18.51 475.54-19.14 476.15-19.78 476.15-20.65ZM528.6-25.2L528.6-25.2Q528.6-24.41 528.31-23.56 528.02-22.71 527.58-21.83 527.14-20.95 526.65-20.14 526.16-19.34 525.77-18.65L525.77-18.65Q524.79-17.09 523.84-15.48 522.89-13.87 521.91-12.3L521.91-12.3Q522.35-11.62 523.13-10.4 523.91-9.18 524.67-7.84 525.43-6.49 525.97-5.18 526.5-3.86 526.5-2.93L526.5-2.93Q526.5-2.05 525.82-1.22 525.14-0.39 524.16-0.39L524.16-0.39Q523.13-0.39 522.08-1.12 521.03-1.86 520.03-2.86 519.03-3.86 518.2-4.96 517.37-6.05 516.79-6.79L516.79-6.79Q516.15-6.1 515.15-4.93 514.15-3.76 513-2.64 511.85-1.51 510.73-0.71 509.61 0.1 508.73 0.1L508.73 0.1Q507.7 0.1 507.12-0.63 506.53-1.37 506.53-2.34L506.53-2.34Q506.53-3.32 507.19-4.83 507.85-6.35 508.75-7.96 509.66-9.57 510.56-11.04 511.46-12.5 511.95-13.33L511.95-13.33Q511.46-14.21 510.73-15.65 510-17.09 509.34-18.68 508.68-20.26 508.22-21.8 507.75-23.34 507.75-24.37L507.75-24.37Q507.75-25.49 508.44-26.17 509.12-26.86 510.24-26.86L510.24-26.86Q511.46-26.86 512.54-25.9 513.61-24.95 514.54-23.61 515.47-22.27 516.18-20.83 516.88-19.38 517.32-18.46L517.32-18.46Q517.91-19.34 518.96-20.85 520.01-22.36 521.33-23.83 522.65-25.29 524.06-26.37 525.48-27.44 526.75-27.44L526.75-27.44Q527.58-27.44 528.09-26.73 528.6-26.03 528.6-25.2ZM563.43 1.76L563.43 1.76Q559.97 1.76 558.04 0.85 556.11-0.05 555.16-1.71 554.2-3.37 554.01-5.71 553.81-8.06 553.81-10.94L553.81-10.94Q553.81-13.23 553.96-15.55 554.11-17.87 554.4-20.51L554.4-20.51Q553.72-20.51 553.32-20.48 552.93-20.46 552.69-20.46L552.69-20.46Q551.13-20.46 549.98-21.14 548.83-21.83 548.83-23.24L548.83-23.24Q548.83-24.12 549.49-24.8 550.15-25.49 551.18-25.98 552.2-26.46 553.4-26.76 554.59-27.05 555.67-27.15L555.67-27.15Q555.67-28.52 555.86-30.18 556.06-31.84 556.57-33.28 557.08-34.72 557.96-35.69 558.84-36.67 560.21-36.67L560.21-36.67Q560.99-36.67 561.6-36.21 562.21-35.74 562.6-35.03 562.99-34.33 563.19-33.45 563.38-32.57 563.38-31.74L563.38-31.74Q563.38-30.76 563.24-29.74 563.09-28.71 562.7-27.2L562.7-27.2Q563.53-27.29 563.82-27.32 564.12-27.34 564.36-27.34L564.36-27.34Q565.19-27.34 566.09-27.2 567-27.05 567.75-26.71 568.51-26.37 569-25.81 569.49-25.24 569.49-24.46L569.49-24.46Q569.49-23.58 568.78-22.9 568.07-22.22 567-21.73 565.92-21.24 564.7-20.97 563.48-20.7 562.41-20.61L562.41-20.61Q562.11-18.6 561.99-16.92 561.87-15.23 561.72-13.53L561.72-13.53Q561.63-12.7 561.55-11.84 561.48-10.99 561.48-10.11L561.48-10.11Q561.48-9.47 561.53-8.62 561.58-7.76 561.87-6.98 562.16-6.2 562.8-5.64 563.43-5.08 564.56-5.08L564.56-5.08Q565.24-5.08 565.97-5.2 566.7-5.32 567.44-5.32L567.44-5.32Q568.71-5.32 569.27-4.44 569.83-3.56 569.83-2.2L569.83-2.2Q569.83-1.17 569.22-0.42 568.61 0.34 567.68 0.81 566.75 1.27 565.6 1.51 564.46 1.76 563.43 1.76ZM648.72-12.65L648.72-12.65Q648.72-11.82 648.69-10.18 648.67-8.54 648.55-6.76 648.42-4.98 648.23-3.39 648.03-1.81 647.74-1.07L647.74-1.07Q647.35-0.15 646.71 0.54 646.08 1.22 645.01 1.22L645.01 1.22Q643.35 1.22 642.61-0.1 641.88-1.42 641.64-3.37 641.39-5.32 641.44-7.62 641.49-9.91 641.39-11.87 641.29-13.82 640.86-15.14 640.42-16.46 639.24-16.46L639.24-16.46Q637.63-16.46 636.78-15.94 635.92-15.43 635.56-14.6 635.19-13.77 635.12-12.7 635.04-11.62 634.95-10.45L634.95-10.45Q634.85-9.33 634.8-7.42 634.75-5.52 634.36-3.66 633.97-1.81 633.07-0.46 632.16 0.88 630.41 0.88L630.41 0.88Q629.33 0.88 628.67 0.05 628.01-0.78 627.62-2.1 627.23-3.42 627.06-5.03 626.89-6.64 626.87-8.18 626.84-9.72 626.87-10.99 626.89-12.26 626.89-12.89L626.89-12.89Q626.89-13.87 626.96-16.11 627.04-18.36 627.28-21.12 627.53-23.88 627.92-26.81 628.31-29.74 628.94-32.15 629.58-34.57 630.48-36.08 631.38-37.6 632.6-37.55L632.6-37.55Q633.38-37.5 633.95-36.87 634.51-36.23 634.87-35.23 635.24-34.23 635.48-33.06 635.73-31.88 635.85-30.74 635.97-29.59 636-28.61 636.02-27.64 636.02-27.1L636.02-27.1Q636.02-25.83 635.97-24.56 635.92-23.29 635.83-22.02L635.83-22.02Q636.95-23.54 638.83-24.51 640.71-25.49 642.61-25.49L642.61-25.49Q645.05-25.49 646.3-24.15 647.54-22.8 648.08-20.83 648.62-18.85 648.67-16.63 648.72-14.4 648.72-12.65ZM683.45 1.42L683.45 1.42Q680.96 1.42 679.1 0.1 677.25-1.22 675.98-3.27 674.71-5.32 674.07-7.84 673.44-10.35 673.44-12.79L673.44-12.79Q673.44-15.38 674.07-18.14 674.71-20.9 676.03-23.17 677.35-25.44 679.4-26.88 681.45-28.32 684.28-28.32L684.28-28.32Q687.01-28.32 688.94-26.83 690.87-25.34 692.04-23.12 693.21-20.9 693.7-18.26 694.19-15.63 694.04-13.28L694.04-13.28Q693.9-10.69 693.24-8.06 692.58-5.42 691.31-3.32 690.04-1.22 688.09 0.1 686.13 1.42 683.45 1.42ZM683.94-20.65L683.94-20.65Q683.2-20.65 682.64-19.87 682.08-19.09 681.72-17.97 681.35-16.85 681.15-15.6 680.96-14.36 680.96-13.43L680.96-13.43Q680.96-12.26 681.18-10.89 681.4-9.52 681.79-8.37 682.18-7.23 682.74-6.47 683.3-5.71 684.03-5.71L684.03-5.71Q684.82-5.71 685.38-6.45 685.94-7.18 686.28-8.3 686.62-9.42 686.77-10.77 686.92-12.11 686.92-13.28L686.92-13.28Q686.92-14.36 686.72-15.65 686.53-16.94 686.16-18.07 685.79-19.19 685.23-19.92 684.67-20.65 683.94-20.65ZM748.16-16.11L748.16-16.11Q748.16-15.19 748.16-13.6 748.16-12.01 748.09-10.16 748.02-8.3 747.77-6.42 747.53-4.54 747.01-3.03 746.5-1.51 745.72-0.54 744.94 0.44 743.72 0.44L743.72 0.44Q742.64 0.44 742.08-0.46 741.52-1.37 741.28-2.59 741.03-3.81 741.01-5.08 740.98-6.35 740.98-7.08L740.98-7.08Q740.98-9.28 741.13-11.38 741.28-13.48 741.28-15.67L741.28-15.67Q741.28-15.92 741.28-16.55 741.28-17.19 741.18-17.82 741.08-18.46 740.86-18.95 740.64-19.43 740.2-19.43L740.2-19.43Q739.32-19.43 738.79-18.53 738.25-17.63 737.91-16.41 737.57-15.19 737.42-13.99 737.27-12.79 737.22-12.21L737.22-12.21Q737.13-11.57 737.05-10.3 736.98-9.03 736.86-7.52 736.74-6.01 736.47-4.42 736.2-2.83 735.78-1.54 735.37-0.24 734.73 0.59 734.1 1.42 733.17 1.42L733.17 1.42Q732 1.42 731.36 0.39 730.73-0.63 730.44-2 730.14-3.37 730.07-4.79 730-6.2 730-6.98L730-6.98Q730-7.81 730.02-8.59 730.05-9.38 730.05-10.21L730.05-10.21Q730.05-10.55 730.05-11.33 730.05-12.11 730.02-13.06 730-14.01 729.92-15.04 729.85-16.06 729.7-16.92 729.56-17.77 729.27-18.31 728.97-18.85 728.58-18.85L728.58-18.85Q727.95-18.85 727.41-18.04 726.87-17.24 726.48-16.14 726.09-15.04 725.87-13.96 725.65-12.89 725.65-12.4L725.65-12.4 725.65-12.11Q725.65-9.77 725.94-7.52 726.24-5.27 726.24-2.93L726.24-2.93Q726.24-1.56 725.36-0.42 724.48 0.73 722.92 0.73L722.92 0.73Q721.79 0.73 721.06-0.12 720.33-0.98 719.84-2.34 719.35-3.71 719.08-5.35 718.82-6.98 718.72-8.57 718.62-10.16 718.6-11.45 718.57-12.74 718.57-13.38L718.57-13.38Q718.57-14.11 718.55-15.53 718.52-16.94 718.6-18.6 718.67-20.26 718.86-22 719.06-23.73 719.5-25.15 719.94-26.56 720.65-27.47 721.35-28.37 722.48-28.37L722.48-28.37Q723.75-28.37 724.55-27.69 725.36-27 725.36-25.63L725.36-25.63Q725.36-25.34 725.33-25.05 725.31-24.76 725.26-24.51L725.26-24.51Q725.8-25.29 726.58-26.1 727.36-26.9 728.26-27.56 729.17-28.22 730.19-28.64 731.22-29.05 732.24-29.05L732.24-29.05Q733.22-29.05 734-28.52 734.78-27.98 735.37-27.17 735.95-26.37 736.35-25.44 736.74-24.51 736.88-23.68L736.88-23.68Q737.37-24.56 738.08-25.46 738.79-26.37 739.62-27.05 740.45-27.73 741.45-28.17 742.45-28.61 743.52-28.61L743.52-28.61Q744.55-28.61 745.28-27.88 746.01-27.15 746.55-26 747.09-24.85 747.38-23.41 747.67-21.97 747.87-20.58 748.06-19.19 748.11-17.99 748.16-16.8 748.16-16.11ZM793.83-8.69L793.83-8.69Q793.83-7.03 792.78-5.44 791.73-3.86 790.14-2.61 788.56-1.37 786.75-0.61 784.94 0.15 783.43 0.15L783.43 0.15Q780.84 0.15 778.82-1.15 776.79-2.44 775.42-4.44 774.06-6.45 773.35-8.86 772.64-11.28 772.64-13.57L772.64-13.57Q772.64-16.02 773.32-18.8 774.01-21.58 775.4-23.93 776.79-26.27 778.91-27.83 781.04-29.39 783.97-29.39L783.97-29.39Q785.63-29.39 787.14-28.83 788.66-28.27 789.78-27.25 790.9-26.22 791.59-24.8 792.27-23.39 792.27-21.63L792.27-21.63Q792.27-19.34 791.29-17.33 790.32-15.33 788.7-13.87 787.09-12.4 784.99-11.5 782.89-10.6 780.7-10.5L780.7-10.5Q780.89-9.08 781.84-8.45 782.8-7.81 784.11-7.81L784.11-7.81Q785.09-7.81 786.02-8.3 786.95-8.79 787.83-9.4 788.7-10.01 789.56-10.5 790.41-10.99 791.29-10.99L791.29-10.99Q792.27-10.99 793.05-10.35 793.83-9.72 793.83-8.69ZM785.92-20.65L785.92-20.65Q785.92-21.29 785.58-21.97 785.24-22.66 784.51-22.66L784.51-22.66Q783.43-22.66 782.7-22.09 781.97-21.53 781.48-20.68 780.99-19.82 780.72-18.85 780.45-17.87 780.4-17.04L780.4-17.04Q781.09-17.19 782.04-17.43 782.99-17.68 783.85-18.09 784.7-18.51 785.31-19.14 785.92-19.78 785.92-20.65Z" opacity="1" transform="matrix(1,0,0,1,0,0)" fill="#7e91c6" class="slogan-text-1" data-fill-palette-color="secondary" id="text-1"></path></svg></g></svg></g></svg></g></svg></g><g transform="matrix(1,0,0,1,132.0699361383089,0)"><svg viewBox="0 0 131.3801277233823 110.35930728764113" height="110.35930728764113" width="131.3801277233823"><g><svg version="1.1" xmlns="http://www.w3.org/2000/svg" xmlns:xlink="http://www.w3.org/1999/xlink" x="0" y="0" viewBox="0 0 100 84" enable-background="new 0 0 100 84" xml:space="preserve" height="110.35930728764113" width="131.3801277233823" class="icon-icon-0" data-fill-palette-color="accent" id="icon-0"><polygon points="82,32.641 82,9 68,9 68,18.359 50,0 0,51 12,51 12,84 43,84 43,57 57,57 57,84 88,84 88,51 100,51 " fill="#eb7043" data-fill-palette-color="accent"></polygon></svg></g></svg></g><g></g></svg></g><defs></defs></svg><rect width="395.52" height="200.3818468893074" fill="none" stroke="none" visibility="hidden"></rect></g></svg></g></svg>