<svg xmlns="http://www.w3.org/2000/svg" version="1.1" xmlns:xlink="http://www.w3.org/1999/xlink" xmlns:svgjs="http://svgjs.dev/svgjs" width="2000" height="237" viewBox="0 0 2000 237"><g transform="matrix(1,0,0,1,-1.2121212121213603,-0.09283872934049953)"><svg viewBox="0 0 396 47" data-background-color="#ffffff" preserveAspectRatio="xMidYMid meet" height="237" width="2000" xmlns="http://www.w3.org/2000/svg" xmlns:xlink="http://www.w3.org/1999/xlink"><g id="tight-bounds" transform="matrix(1,0,0,1,0.24000000000003752,0.0184110560295494)"><svg viewBox="0 0 395.5199999999999 46.96317788794088" height="46.96317788794088" width="395.5199999999999"><g><svg viewBox="0 0 494.40022055273755 58.70399854787475" height="46.96317788794088" width="395.5199999999999"><g transform="matrix(1,0,0,1,98.88022055273758,8.113215428830738)"><svg viewBox="0 0 395.52 42.47756769021327" height="42.47756769021327" width="395.52"><g id="textblocktransform"><svg viewBox="0 0 395.52 42.47756769021327" height="42.47756769021327" width="395.52" id="textblock"><g><svg viewBox="0 0 395.52 42.47756769021327" height="42.47756769021327" width="395.52"><g transform="matrix(1,0,0,1,0,0)"><svg width="395.52" viewBox="4.4 -35 330.53000000000003 35.5" height="42.47756769021327" data-palette-color="#ff851b"><path d="M6.4-35L18.9-35Q22.55-35 25.33-33.63 28.1-32.25 29.95-29.8 31.8-27.35 32.73-24.18 33.65-21 33.65-17.5L33.65-17.5Q33.65-12.7 32-8.72 30.35-4.75 27.1-2.38 23.85 0 18.9 0L18.9 0 6.4 0Q5.55 0 4.98-0.6 4.4-1.2 4.4-2.05L4.4-2.05 4.4-33Q4.4-33.85 4.98-34.43 5.55-35 6.4-35L6.4-35ZM8.25-3.9L18.4-3.9Q22.25-3.9 24.68-5.75 27.1-7.6 28.23-10.7 29.35-13.8 29.35-17.5L29.35-17.5Q29.35-20.2 28.73-22.68 28.1-25.15 26.78-27.05 25.45-28.95 23.38-30.05 21.3-31.15 18.4-31.15L18.4-31.15 8.15-31.15 8.55-31.55 8.55-3.4 8.25-3.9ZM41.6 0L41.6 0Q40.75 0 40.17-0.6 39.6-1.2 39.6-2.05L39.6-2.05 39.6-23.85Q39.6-24.7 40.17-25.28 40.75-25.85 41.6-25.85L41.6-25.85Q42.5-25.85 43.05-25.28 43.6-24.7 43.6-23.85L43.6-23.85 43.6-17.25 43-18.3Q43.3-19.85 44.07-21.33 44.85-22.8 46.05-23.98 47.25-25.15 48.8-25.83 50.35-26.5 52.2-26.5L52.2-26.5Q53.3-26.5 54.22-25.98 55.15-25.45 55.15-24.5L55.15-24.5Q55.15-23.45 54.6-22.95 54.05-22.45 53.35-22.45L53.35-22.45Q52.7-22.45 52.1-22.73 51.5-23 50.6-23L50.6-23Q49.35-23 48.12-22.33 46.9-21.65 45.87-20.4 44.85-19.15 44.22-17.57 43.6-16 43.6-14.2L43.6-14.2 43.6-2.05Q43.6-1.2 43.02-0.6 42.45 0 41.6 0ZM70.25 0.5L70.25 0.5Q66.25 0.5 63.25-1.2 60.25-2.9 58.6-5.88 56.95-8.85 56.95-12.75L56.95-12.75Q56.95-17.1 58.67-20.18 60.4-23.25 63.15-24.88 65.9-26.5 69-26.5L69-26.5Q71.34-26.5 73.47-25.65 75.59-24.8 77.27-23.18 78.95-21.55 79.95-19.28 80.95-17 81-14.2L81-14.2Q80.95-13.4 80.34-12.85 79.75-12.3 78.95-12.3L78.95-12.3 59.2-12.3 58.3-15.75 77.55-15.75 76.75-15.05 76.75-16.15Q76.59-18.2 75.42-19.68 74.25-21.15 72.55-21.95 70.84-22.75 69-22.75L69-22.75Q67.5-22.75 66.02-22.23 64.55-21.7 63.37-20.53 62.2-19.35 61.5-17.5 60.8-15.65 60.8-13.05L60.8-13.05Q60.8-10.15 61.97-7.95 63.15-5.75 65.25-4.48 67.34-3.2 70.09-3.2L70.09-3.2Q71.9-3.2 73.2-3.65 74.5-4.1 75.42-4.78 76.34-5.45 77-6.15L77-6.15Q77.65-6.6 78.3-6.6L78.3-6.6Q79-6.6 79.5-6.1 80-5.6 80-4.9L80-4.9Q80-4.05 79.2-3.4L79.2-3.4Q77.75-1.85 75.37-0.68 73 0.5 70.25 0.5ZM107.99-26.1L107.99-26.1Q108.89-26.1 109.44-25.53 109.99-24.95 109.99-24.1L109.99-24.1 109.99-2.05Q109.99-1.2 109.42-0.6 108.84 0 107.99 0L107.99 0Q107.14 0 106.57-0.6 105.99-1.2 105.99-2.05L105.99-2.05 105.99-6.8 106.94-6.9Q106.94-5.8 106.19-4.5 105.44-3.2 104.14-2.08 102.84-0.95 101.09-0.23 99.34 0.5 97.29 0.5L97.29 0.5Q93.89 0.5 91.17-1.28 88.44-3.05 86.89-6.1 85.34-9.15 85.34-13.05L85.34-13.05Q85.34-17 86.92-20.03 88.49-23.05 91.17-24.78 93.84-26.5 97.19-26.5L97.19-26.5Q99.34-26.5 101.19-25.8 103.04-25.1 104.42-23.9 105.79-22.7 106.54-21.25 107.29-19.8 107.29-18.35L107.29-18.35 105.99-18.65 105.99-24.1Q105.99-24.95 106.57-25.53 107.14-26.1 107.99-26.1ZM97.69-3.2L97.69-3.2Q100.19-3.2 102.12-4.5 104.04-5.8 105.14-8.03 106.24-10.25 106.24-13.05L106.24-13.05Q106.24-15.8 105.14-18.03 104.04-20.25 102.12-21.53 100.19-22.8 97.69-22.8L97.69-22.8Q95.24-22.8 93.32-21.55 91.39-20.3 90.29-18.1 89.19-15.9 89.19-13.05L89.19-13.05Q89.19-10.25 90.29-8.03 91.39-5.8 93.32-4.5 95.24-3.2 97.69-3.2ZM129.74-26.25L129.74-26.25Q133.14-26.25 135.27-24.53 137.39-22.8 138.09-19.65L138.09-19.65 137.34-19.65 137.69-20.55Q138.29-21.95 139.74-23.25 141.19-24.55 143.09-25.4 144.99-26.25 147.04-26.25L147.04-26.25Q150.34-26.25 152.24-24.83 154.14-23.4 154.97-21.03 155.79-18.65 155.79-15.7L155.79-15.7 155.79-2.05Q155.79-1.2 155.22-0.6 154.64 0 153.79 0L153.79 0Q152.89 0 152.34-0.6 151.79-1.2 151.79-2.05L151.79-2.05 151.79-15.6Q151.79-17.55 151.22-19.13 150.64-20.7 149.37-21.63 148.09-22.55 145.89-22.55L145.89-22.55Q143.84-22.55 142.14-21.63 140.44-20.7 139.44-19.13 138.44-17.55 138.44-15.6L138.44-15.6 138.44-2.05Q138.44-1.2 137.89-0.6 137.34 0 136.44 0L136.44 0Q135.59 0 135.02-0.6 134.44-1.2 134.44-2.05L134.44-2.05 134.44-15.75Q134.44-17.65 133.92-19.18 133.39-20.7 132.14-21.63 130.89-22.55 128.69-22.55L128.69-22.55Q126.69-22.55 125.04-21.63 123.39-20.7 122.39-19.18 121.39-17.65 121.39-15.75L121.39-15.75 121.39-2.05Q121.39-1.2 120.82-0.6 120.24 0 119.39 0L119.39 0Q118.54 0 117.97-0.6 117.39-1.2 117.39-2.05L117.39-2.05 117.39-23.85Q117.39-24.7 117.97-25.28 118.54-25.85 119.39-25.85L119.39-25.85Q120.29-25.85 120.84-25.28 121.39-24.7 121.39-23.85L121.39-23.85 121.39-20.05 120.29-18.85Q120.49-20.15 121.32-21.45 122.14-22.75 123.44-23.85 124.74-24.95 126.34-25.6 127.94-26.25 129.74-26.25ZM179.74-35L179.74-35Q180.59-35 181.19-34.43 181.79-33.85 181.79-32.95L181.79-32.95 181.79-2.05Q181.79-1.2 181.16-0.6 180.54 0 179.69 0L179.69 0Q178.74 0 178.19-0.6 177.64-1.2 177.64-2.05L177.64-2.05 177.64-32.95Q177.64-33.85 178.24-34.43 178.84-35 179.74-35ZM202.79-35L202.79-35Q203.69-35 204.26-34.43 204.84-33.85 204.84-32.95L204.84-32.95 204.84-2.05Q204.84-1.2 204.24-0.6 203.64 0 202.74 0L202.74 0Q201.89 0 201.29-0.6 200.69-1.2 200.69-2.05L200.69-2.05 200.69-32.95Q200.69-33.85 201.31-34.43 201.94-35 202.79-35ZM179.39-15.85L179.54-19.75 202.84-19.75 202.79-15.85 179.39-15.85ZM237.23-13L237.23-13Q237.23-9.1 235.53-6.05 233.83-3 230.91-1.25 227.98 0.5 224.28 0.5L224.28 0.5Q220.63 0.5 217.71-1.25 214.78-3 213.06-6.05 211.33-9.1 211.33-13L211.33-13Q211.33-16.9 213.06-19.95 214.78-23 217.71-24.75 220.63-26.5 224.28-26.5L224.28-26.5Q227.98-26.5 230.91-24.75 233.83-23 235.53-19.95 237.23-16.9 237.23-13ZM233.23-13L233.23-13Q233.23-15.9 232.06-18.1 230.88-20.3 228.86-21.55 226.83-22.8 224.28-22.8L224.28-22.8Q221.78-22.8 219.73-21.55 217.68-20.3 216.51-18.1 215.33-15.9 215.33-13L215.33-13Q215.33-10.15 216.51-7.95 217.68-5.75 219.73-4.48 221.78-3.2 224.28-3.2L224.28-3.2Q226.83-3.2 228.86-4.48 230.88-5.75 232.06-7.95 233.23-10.15 233.23-13ZM255.38-26.25L255.38-26.25Q258.78-26.25 260.91-24.53 263.03-22.8 263.73-19.65L263.73-19.65 262.98-19.65 263.33-20.55Q263.93-21.95 265.38-23.25 266.83-24.55 268.73-25.4 270.63-26.25 272.68-26.25L272.68-26.25Q275.98-26.25 277.88-24.83 279.78-23.4 280.61-21.03 281.43-18.65 281.43-15.7L281.43-15.7 281.43-2.05Q281.43-1.2 280.86-0.6 280.28 0 279.43 0L279.43 0Q278.53 0 277.98-0.6 277.43-1.2 277.43-2.05L277.43-2.05 277.43-15.6Q277.43-17.55 276.86-19.13 276.28-20.7 275.01-21.63 273.73-22.55 271.53-22.55L271.53-22.55Q269.48-22.55 267.78-21.63 266.08-20.7 265.08-19.13 264.08-17.55 264.08-15.6L264.08-15.6 264.08-2.05Q264.08-1.2 263.53-0.6 262.98 0 262.08 0L262.08 0Q261.23 0 260.66-0.6 260.08-1.2 260.08-2.05L260.08-2.05 260.08-15.75Q260.08-17.65 259.56-19.18 259.03-20.7 257.78-21.63 256.53-22.55 254.33-22.55L254.33-22.55Q252.33-22.55 250.68-21.63 249.03-20.7 248.03-19.18 247.03-17.65 247.03-15.75L247.03-15.75 247.03-2.05Q247.03-1.2 246.46-0.6 245.88 0 245.03 0L245.03 0Q244.18 0 243.61-0.6 243.03-1.2 243.03-2.05L243.03-2.05 243.03-23.85Q243.03-24.7 243.61-25.28 244.18-25.85 245.03-25.85L245.03-25.85Q245.93-25.85 246.48-25.28 247.03-24.7 247.03-23.85L247.03-23.85 247.03-20.05 245.93-18.85Q246.13-20.15 246.96-21.45 247.78-22.75 249.08-23.85 250.38-24.95 251.98-25.6 253.58-26.25 255.38-26.25ZM300.53 0.5L300.53 0.5Q296.53 0.5 293.53-1.2 290.53-2.9 288.88-5.88 287.23-8.85 287.23-12.75L287.23-12.75Q287.23-17.1 288.95-20.18 290.68-23.25 293.43-24.88 296.18-26.5 299.28-26.5L299.28-26.5Q301.63-26.5 303.75-25.65 305.88-24.8 307.55-23.18 309.23-21.55 310.23-19.28 311.23-17 311.28-14.2L311.28-14.2Q311.23-13.4 310.63-12.85 310.03-12.3 309.23-12.3L309.23-12.3 289.48-12.3 288.58-15.75 307.83-15.75 307.03-15.05 307.03-16.15Q306.88-18.2 305.7-19.68 304.53-21.15 302.83-21.95 301.13-22.75 299.28-22.75L299.28-22.75Q297.78-22.75 296.3-22.23 294.83-21.7 293.65-20.53 292.48-19.35 291.78-17.5 291.08-15.65 291.08-13.05L291.08-13.05Q291.08-10.15 292.25-7.95 293.43-5.75 295.53-4.48 297.63-3.2 300.38-3.2L300.38-3.2Q302.18-3.2 303.48-3.65 304.78-4.1 305.7-4.78 306.63-5.45 307.28-6.15L307.28-6.15Q307.93-6.6 308.58-6.6L308.58-6.6Q309.28-6.6 309.78-6.1 310.28-5.6 310.28-4.9L310.28-4.9Q310.28-4.05 309.48-3.4L309.48-3.4Q308.03-1.85 305.65-0.68 303.28 0.5 300.53 0.5ZM315.58-4.1L315.58-4.1Q315.13-4.75 315.18-5.48 315.23-6.2 316.03-6.75L316.03-6.75Q316.53-7.1 317.2-7.05 317.88-7 318.43-6.4L318.43-6.4Q319.83-4.75 321.63-3.78 323.43-2.8 326.03-2.8L326.03-2.8Q327.23-2.85 328.43-3.2 329.63-3.55 330.45-4.42 331.28-5.3 331.28-6.75L331.28-6.75Q331.28-8.15 330.43-8.97 329.58-9.8 328.23-10.33 326.88-10.85 325.28-11.25L325.28-11.25Q323.63-11.7 322.03-12.28 320.43-12.85 319.15-13.73 317.88-14.6 317.1-15.93 316.33-17.25 316.33-19.15L316.33-19.15Q316.33-21.4 317.55-23.05 318.78-24.7 320.85-25.6 322.93-26.5 325.38-26.5L325.38-26.5Q326.78-26.5 328.3-26.18 329.83-25.85 331.28-25.08 332.73-24.3 333.83-22.95L333.83-22.95Q334.28-22.45 334.33-21.7 334.38-20.95 333.68-20.35L333.68-20.35Q333.13-19.95 332.45-20 331.78-20.05 331.33-20.5L331.33-20.5Q330.28-21.75 328.7-22.43 327.13-23.1 325.23-23.1L325.23-23.1Q324.03-23.1 322.88-22.75 321.73-22.4 320.95-21.58 320.18-20.75 320.18-19.3L320.18-19.3Q320.23-17.95 321.08-17.1 321.93-16.25 323.38-15.73 324.83-15.2 326.58-14.7L326.58-14.7Q328.18-14.3 329.65-13.78 331.13-13.25 332.33-12.4 333.53-11.55 334.23-10.23 334.93-8.9 334.93-6.9L334.93-6.9Q334.93-4.6 333.63-2.93 332.33-1.25 330.2-0.38 328.08 0.5 325.63 0.5L325.63 0.5Q322.88 0.5 320.2-0.55 317.53-1.6 315.58-4.1Z" opacity="1" transform="matrix(1,0,0,1,0,0)" fill="#000000" class="wordmark-text-0" data-fill-palette-color="primary" id="text-0"></path></svg></g></svg></g></svg></g></svg></g><g><svg viewBox="0 0 88.85228628270279 58.70399854787475" height="58.70399854787475" width="88.85228628270279"><g><svg xmlns="http://www.w3.org/2000/svg" xmlns:xlink="http://www.w3.org/1999/xlink" version="1.1" x="0" y="0" viewBox="8.189 6.884 94.73400000000001 62.58999999999999" enable-background="new 0 0 107.895 78.07" xml:space="preserve" height="58.70399854787475" width="88.85228628270279" class="icon-icon-0" data-fill-palette-color="accent" id="icon-0"><polygon points="102.923,54.276 96.612,60.683 55.61,19.633 14.584,60.683 8.189,54.276 55.584,6.887 55.655,6.955 55.904,6.884   75.281,26.08 75.281,12.474 83.281,12.474 83.281,34.824 " fill="#000000" data-fill-palette-color="accent"></polygon><rect x="47.281" y="40.474" width="17" height="29" fill="#000000" data-fill-palette-color="accent"></rect></svg></g></svg></g></svg></g><defs></defs></svg><rect width="395.5199999999999" height="46.96317788794088" fill="none" stroke="none" visibility="hidden"></rect></g></svg></g></svg>